<svg width="154" height="154" viewBox="0 0 154 154" fill="none" xmlns="http://www.w3.org/2000/svg">
<g id="Group 209">
<path id="Vector" d="M153.305 81.5727C152.916 84.4225 152.621 87.2058 152.108 89.9985C148.948 108.384 139.144 124.968 124.561 136.601C122.87 137.988 121.046 137.941 119.906 136.601C118.766 135.262 119.004 133.438 120.752 132.032C127.586 126.563 133.334 119.862 137.698 112.274C143.29 102.665 146.486 91.851 147.017 80.7462C147.207 76.7281 147.017 72.6909 147.017 68.5588C145.383 70.5346 144.081 72.3588 142.543 73.9262C140.51 76.035 138.116 75.4369 137.09 72.6822C136.064 69.9275 134.943 67.2955 134.164 64.5217C133.319 61.52 131.182 59.4974 129.234 57.3316C128.778 56.8281 127.771 56.8185 126.651 56.467C127.771 58.8703 126.983 60.2666 125.501 61.6154C121.25 65.4866 116.248 68.4416 110.806 70.2972C108.479 71.1142 107.282 70.6683 106.133 68.493C103.72 63.9081 101.326 59.3139 98.9513 54.71C98.6471 54.1958 98.4712 53.6156 98.4384 53.019C98.5808 49.4663 95.6836 48.2692 93.4513 46.6164C92.5014 45.9134 91.1241 45.7803 89.9747 45.3149C89.5895 45.2037 89.2309 45.0163 88.9202 44.7629C88.6096 44.5095 88.3534 44.1958 88.1671 43.8408C87.9807 43.4859 87.8681 43.0966 87.8359 42.6971C87.8037 42.2975 87.8527 41.8954 87.9799 41.5152C88.4738 39.9479 90.0127 39.302 91.8555 39.6154C96.9945 40.5653 100.405 44.0896 103.663 47.7657C104.204 48.3831 104.147 49.5229 104.375 50.4253C104.557 51.5799 104.856 52.7135 105.268 53.8074C106.931 57.1986 108.735 60.5233 110.692 64.2564L120.486 58.4522C120.096 57.6732 119.868 57.2456 119.669 56.7991C119.375 56.1756 119.238 55.4904 119.269 54.8019C119.301 54.1134 119.499 53.4425 119.849 52.8483C120.198 52.254 120.686 51.7536 121.272 51.3909C121.859 51.0283 122.524 50.8147 123.212 50.7676C125.154 50.6346 127.102 50.6346 129.044 50.7676C131.134 50.9195 132.711 52.1354 134.126 53.6173C137.066 56.4834 139.21 60.064 140.348 64.0087C140.426 64.298 140.534 64.5791 140.671 64.8455C140.671 64.9215 140.795 64.9782 140.918 65.0922C141.192 62.776 142.34 60.6521 144.129 59.1553C144.306 58.9543 144.435 58.7153 144.506 58.4568C144.577 58.1983 144.587 57.9269 144.537 57.6637C139.861 40.5222 128.783 25.8298 113.589 16.6182C104.713 11.0852 94.6832 7.66939 84.2752 6.63492C83.9581 6.62135 83.6416 6.67564 83.3469 6.79355C83.0521 6.91145 82.7857 7.09003 82.5654 7.3186C80.0767 10.3108 77.7399 13.4263 75.2226 16.39C74.4302 17.3294 73.4143 18.0552 72.2684 18.4995C66.569 20.6083 60.8695 22.5935 55.0846 24.5598C54.6842 24.6717 54.3172 24.88 54.0158 25.1665C53.7145 25.4529 53.4878 25.8084 53.3558 26.2026C52.2444 29.0524 51.038 31.8172 49.9266 34.6479C49.826 34.8836 49.7741 35.1365 49.7741 35.3928C49.7741 35.6491 49.826 35.9029 49.9266 36.1386C51.1805 38.0384 52.5389 39.8813 53.9637 41.8381C55.8635 39.0643 58.2383 36.965 61.373 36.1386C63.3044 35.6728 65.2852 35.4434 67.2719 35.455C67.6637 35.439 68.0547 35.5039 68.4202 35.646C68.7857 35.7882 69.1179 36.0041 69.3961 36.2806C69.6743 36.557 69.8925 36.8881 70.0369 37.2527C70.1814 37.6173 70.249 38.0074 70.2356 38.3993C70.2132 39.2064 69.8736 39.9727 69.2903 40.531C68.7071 41.0894 67.9272 41.3954 67.1199 41.3826C65.9767 41.3874 64.8359 41.4884 63.7098 41.6859C62.4639 41.9632 61.3137 42.5658 60.376 43.4318C59.4384 44.2977 58.7467 45.3965 58.3713 46.6164C60.5086 46.5024 62.4939 46.2461 64.4697 46.3316C66.4951 46.3629 68.5086 46.6466 70.4636 47.1767C71.3896 47.4483 72.192 48.0342 72.7329 48.8334C73.2738 49.6326 73.5193 50.5954 73.4273 51.5561C73.4365 51.7833 73.4927 52.0057 73.5924 52.21C73.6922 52.4144 73.8333 52.5964 74.0067 52.7434C74.8712 53.3894 75.8401 53.9021 76.752 54.4531C78.8228 51.9643 81.2641 51.2141 84.2658 52.2685C85.8616 52.8194 87.5049 53.2662 89.1388 53.7221C93.0524 54.7955 95.5221 57.3887 97.0515 61.0458C98.3244 64.076 99.6162 67.1063 100.946 70.108C101.402 71.0876 101.916 72.0392 102.485 72.9577C102.925 73.7736 103.566 74.4627 104.347 74.9614C105.129 75.4601 106.024 75.7519 106.95 75.8074C108.09 75.9315 109.213 76.1894 110.293 76.5765C113.057 77.5264 114.397 80.1859 113.086 82.7982C112.01 84.7531 110.703 86.5712 109.191 88.2128C107.434 90.2456 105.439 92.0698 103.625 94.0551C103.048 94.6532 102.649 95.3998 102.473 96.2119C102.297 97.0239 102.35 97.8691 102.627 98.6525C102.912 99.5549 103.121 100.476 103.34 101.397C103.671 102.609 103.705 103.882 103.439 105.109C103.173 106.336 102.614 107.481 101.811 108.446C100.055 110.658 98.4911 113.016 97.137 115.494C95.7596 117.954 94.5912 120.481 93.3374 122.96C92.2832 125.153 90.7044 127.052 88.7409 128.488C86.7774 129.925 84.4899 130.855 82.081 131.196C81.034 131.354 79.9639 131.21 78.9951 130.783C78.0264 130.356 77.1991 129.663 76.6095 128.783C76.0721 128.127 75.619 127.406 75.2606 126.637C73.1613 121.526 71.0335 116.425 69.0767 111.257C68.2981 109.109 68.2981 106.756 69.0767 104.608C69.3712 103.658 69.6182 102.794 69.8557 101.882C70.1546 100.974 70.1938 100.002 69.9689 99.0737C69.7439 98.1454 69.2638 97.299 68.5828 96.6293C67.613 95.6888 66.8515 94.5553 66.3475 93.3019C65.8435 92.0485 65.6083 90.7029 65.6571 89.3529C65.6571 87.5766 64.8401 86.9492 63.0828 87.2342C61.0215 87.5666 58.9697 88.1839 56.8989 88.2694C43.5053 89.0293 35.0511 75.1804 41.0165 63.069C41.7813 61.613 42.6915 60.2379 43.7332 58.9651C46.336 55.631 49.0242 52.316 51.7599 48.9438C49.4232 45.6761 47.1814 42.2947 44.7021 39.16C43.9633 38.3574 43.4974 37.3409 43.3711 36.2574C43.2449 35.1739 43.4647 34.0784 43.9992 33.1275C45.633 29.6033 47.0484 25.9746 48.4732 22.365C48.7231 21.6377 49.1431 20.9814 49.6983 20.4494C50.2534 19.9173 50.9277 19.5252 51.6649 19.3065C57.5544 17.3054 63.4279 15.2414 69.2857 13.1136C70.059 12.8169 70.745 12.3299 71.2805 11.698C72.7909 9.94067 74.1967 8.079 75.7261 6.15069C62.4274 5.87522 45.4336 11.0325 33.4647 20.864C35.0036 22.8494 36.8654 24.6644 37.9958 26.8492C40.323 31.3613 40.0951 36.158 36.7134 39.8817C32.2679 44.7642 29.3231 50.4822 26.1029 56.0867C24.9918 58.2655 23.3195 60.1085 21.2584 61.4253C20.3085 61.9762 19.4821 62.689 18.4562 63.4299C19.5676 65.0732 20.6695 66.6594 21.7429 68.2648C23.4337 70.801 22.5313 73.0141 19.5581 73.5366C16.8604 73.9925 14.1436 74.3723 11.4269 74.7332C9.52706 74.9897 7.69375 74.9808 6.24039 73.1664V80.8983C8.61516 80.1384 10.8379 79.4741 13.0322 78.6952C13.7233 78.413 14.4792 78.3279 15.2156 78.4503C15.9519 78.5727 16.6398 78.8975 17.2023 79.3881C20.3845 81.8864 23.6807 84.2329 26.8154 86.7787C28.6159 88.2666 30.7917 89.2293 33.1038 89.5616C35.1235 89.8284 37.0943 90.3853 38.9552 91.2147C40.6942 92.0399 42.1068 93.4234 42.9676 95.1451C43.8285 96.8668 44.088 98.8274 43.7047 100.714C43.318 102.713 43.4888 104.78 44.1987 106.689C45.4715 110.488 44.8731 113.945 41.9284 116.729C40.8835 117.678 39.3826 118.23 38.1288 119.056C37.5723 119.369 37.1424 119.867 36.9129 120.462C36.077 124.414 35.3266 128.375 34.6331 132.355C34.6116 132.643 34.656 132.932 34.763 133.201C34.87 133.469 35.0367 133.709 35.2506 133.903C44.5116 140.662 55.2906 145.045 66.6409 146.665C77.9912 148.284 89.5656 147.092 100.348 143.193C100.813 143.032 101.298 142.871 101.763 142.738C103.663 142.177 105.221 142.852 105.8 144.486C106.38 146.119 105.582 147.677 103.701 148.361C101.539 149.239 99.317 149.96 97.0515 150.517C92.1785 151.467 87.2485 152.227 82.3469 153.053C81.9575 153.12 81.5775 153.224 81.188 153.3H73.1044C72.7237 153.2 72.3365 153.127 71.9455 153.082C64.8692 152.686 57.8862 151.278 51.209 148.902C38.4702 144.424 27.1412 136.659 18.3693 126.394C9.59744 116.128 3.69427 103.726 1.25773 90.4447C-1.17882 77.1634 -0.0622015 63.4738 4.49448 50.7629C9.05115 38.052 16.886 26.7719 27.2056 18.0635C37.5252 9.35509 49.9628 3.52847 63.2589 1.17389C76.555 -1.1807 90.2372 0.0203443 102.92 4.65533C115.602 9.29032 126.835 17.1941 135.479 27.5672C144.124 37.9403 149.874 50.4136 152.146 63.724C152.64 66.5737 152.925 69.4234 153.314 72.2731L153.305 81.5727ZM66.5405 52.2212C63.6243 52.4302 61.05 52.6295 58.4663 52.7815C57.6956 52.8175 56.9439 53.0328 56.2711 53.4104C55.5983 53.7881 55.0229 54.3177 54.5906 54.9568C52.4819 57.74 50.2591 60.4284 48.1218 63.1831C47.4435 64.0429 46.8487 64.9647 46.3455 65.9373C42.8498 72.9191 46.5734 81.136 54.0112 82.2759C56.234 82.6369 58.6563 82.1147 60.9265 81.6683C67.2529 80.4144 71.233 83.2924 71.67 89.7137C71.742 90.9097 72.2488 92.0379 73.0948 92.8863C74.1703 93.971 74.9915 95.2814 75.4992 96.7221C76.0068 98.1628 76.1881 99.6982 76.0301 101.217C75.8876 102.737 75.2796 104.219 75.0801 105.739C74.8807 107.259 74.5007 108.817 74.9662 110.089C76.7235 114.896 78.7658 119.589 80.7511 124.338C80.8049 124.53 80.91 124.704 81.0551 124.841C81.4065 125.031 81.9005 125.373 82.1664 125.259C84.6457 124.214 87.144 122.828 88.0274 120.263C88.7692 117.629 90.0646 115.184 91.827 113.091C92.0912 112.672 92.3169 112.23 92.5014 111.77C93.4834 109.944 94.6111 108.2 95.8736 106.555C97.346 104.883 97.9254 103.354 97.137 101.169C95.5696 96.7616 96.6335 92.8099 99.7492 89.4188C101.298 87.7279 102.998 86.1797 104.603 84.5458C105.354 83.7764 106.057 82.9596 106.883 82.0477C106.385 81.8976 105.877 81.7801 105.363 81.6961C101.393 81.2687 98.8088 78.8464 97.061 75.5598C95.4842 72.577 94.1448 69.4526 92.8244 66.3464C90.2502 60.2765 90.2787 60.2853 83.9903 58.4995C83.5941 58.3251 83.1503 58.2916 82.7322 58.4039C82.3142 58.5162 81.947 58.7679 81.6915 59.1173C80.3711 60.6846 78.5283 61.4922 76.6 60.6562C73.9308 59.5069 71.404 57.9961 68.8203 56.6377C67.1389 55.7543 65.942 54.5959 66.5405 52.2212ZM28.7722 129.012L29.2091 128.745C29.7601 125.896 30.2635 122.979 30.8715 120.111C31.8214 115.561 31.0425 114.905 36.2575 113.461C38.4232 112.844 39.1072 111.172 38.5657 108.968C38.2754 108.226 38.0373 107.464 37.8533 106.689C37.5248 104.945 37.4258 103.166 37.5588 101.397C38.1098 97.7878 37.4923 96.4675 33.9207 96.0115C29.3815 95.6187 25.1029 93.7234 21.7619 90.6256C20.9372 89.8995 20.0645 89.2295 19.1496 88.621C17.4683 87.3766 15.901 85.4203 14.0581 85.1163C12.2153 84.8124 10.1255 86.2178 8.1022 86.7592C6.95281 87.0632 6.83884 87.6046 7.01932 88.659C9.0248 100.467 14.0182 111.566 21.5244 120.899C23.7757 123.739 26.3499 126.314 28.7722 129.012ZM14.4096 68.2833C13.6307 67.1339 12.9277 66.1081 12.2438 65.0727C10.8854 63.002 11.1324 61.5113 13.0987 60.0579C15.065 58.6046 16.8983 57.4262 18.6842 56.0394C19.3153 55.567 19.8559 54.985 20.28 54.3204C23.9941 48.336 26.8629 41.848 31.8214 36.595C34.9941 33.2324 33.2747 27.751 28.9717 25.9652C28.7201 25.8899 28.4546 25.8743 28.1959 25.9188C27.9371 25.9633 27.6922 26.0671 27.4803 26.2221C16.8529 36.5466 9.7668 49.9706 7.23781 64.57C7.12023 64.9845 7.14701 65.426 7.31379 65.8232C9.04262 68.5494 11.1514 69.2807 14.4096 68.2833Z" fill="url(#paint0_linear_1202_239)"/>
<path id="Vector_2" d="M104.65 119.197C105.068 117.743 105.6 116.138 105.971 114.504C106.256 113.517 106.384 112.492 106.351 111.465C105.961 107.665 107.12 104.987 110.568 103.353C111.618 102.906 112.564 102.246 113.344 101.413C114.124 100.58 114.722 99.5937 115.099 98.5169C115.262 98.0976 115.463 97.6943 115.698 97.3109C115.96 96.7383 116.401 96.2663 116.954 95.9649C117.507 95.6636 118.143 95.5493 118.766 95.6393C119.369 95.6936 119.938 95.9382 120.393 96.3378C120.847 96.7375 121.162 97.2712 121.293 97.862C121.787 99.5813 122.29 101.31 122.68 103.058C122.829 103.74 122.806 104.448 122.613 105.119C121.074 110.185 119.491 115.267 117.864 120.365C117.496 121.397 117.002 122.38 116.391 123.291C115.08 125.371 113.38 127.024 110.692 126.701C108.004 126.378 106.332 124.45 105.315 122.047C105.013 121.117 104.791 120.164 104.65 119.197ZM115.688 107.798L115.365 107.522C114.681 107.794 114.028 108.138 113.418 108.548C112.924 108.947 112.25 109.659 112.335 110.106C112.886 112.956 112.031 115.596 111.043 118.218C110.919 118.811 110.88 119.419 110.929 120.023L111.623 120.147L115.688 107.798Z" fill="url(#paint1_linear_1202_239)"/>
<path id="Vector_3" d="M79.773 41.4881C78.9677 41.4739 78.1989 41.1506 77.6258 40.5846C77.0528 40.0187 76.7196 39.2542 76.6953 38.4492C76.7287 37.6708 77.0561 36.9335 77.6114 36.387C78.1667 35.8405 78.9087 35.5248 79.6875 35.5039C80.0999 35.5026 80.5084 35.5836 80.8894 35.7414C81.2704 35.8992 81.6162 36.1307 81.9069 36.4232C82.1976 36.7157 82.4274 37.0635 82.5829 37.4455C82.7383 37.8274 82.8165 38.2363 82.8127 38.6486C82.8043 39.0362 82.7184 39.4182 82.5601 39.772C82.4018 40.1259 82.1744 40.4443 81.8912 40.7089C81.6079 40.9736 81.2746 41.1789 80.9109 41.3128C80.5471 41.4467 80.1602 41.506 79.773 41.4881Z" fill="url(#paint2_linear_1202_239)"/>
<path id="Vector_4" d="M116.449 140.599C116.422 141.404 116.082 142.166 115.502 142.724C114.923 143.283 114.148 143.594 113.343 143.591C112.959 143.591 112.579 143.514 112.225 143.363C111.872 143.213 111.552 142.993 111.286 142.716C111.02 142.439 110.813 142.112 110.676 141.753C110.54 141.394 110.478 141.011 110.493 140.627C110.47 140.219 110.531 139.811 110.671 139.427C110.811 139.044 111.028 138.694 111.309 138.397C111.589 138.1 111.927 137.864 112.302 137.702C112.677 137.54 113.082 137.457 113.49 137.457C113.898 137.457 114.303 137.54 114.678 137.702C115.053 137.864 115.391 138.1 115.671 138.397C115.952 138.694 116.169 139.044 116.309 139.427C116.449 139.811 116.51 140.219 116.487 140.627L116.449 140.599Z" fill="url(#paint3_linear_1202_239)"/>
</g>
<defs>
<linearGradient id="paint0_linear_1202_239" x1="76.6572" y1="0" x2="76.6572" y2="153.3" gradientUnits="userSpaceOnUse">
<stop stop-color="#0D5954"/>
<stop offset="1" stop-color="#4ABA78"/>
</linearGradient>
<linearGradient id="paint1_linear_1202_239" x1="113.714" y1="95.6094" x2="113.714" y2="126.741" gradientUnits="userSpaceOnUse">
<stop stop-color="#0D5954"/>
<stop offset="1" stop-color="#4ABA78"/>
</linearGradient>
<linearGradient id="paint2_linear_1202_239" x1="79.7541" y1="35.5039" x2="79.7541" y2="41.4912" gradientUnits="userSpaceOnUse">
<stop stop-color="#0D5954"/>
<stop offset="1" stop-color="#4ABA78"/>
</linearGradient>
<linearGradient id="paint3_linear_1202_239" x1="113.49" y1="137.457" x2="113.49" y2="143.591" gradientUnits="userSpaceOnUse">
<stop stop-color="#0D5954"/>
<stop offset="1" stop-color="#4ABA78"/>
</linearGradient>
</defs>
</svg>
