<svg width="116" height="154" viewBox="0 0 116 154" fill="none" xmlns="http://www.w3.org/2000/svg">
<g id="Group 207">
<path id="Vector" d="M63.137 0.024414C65.4596 0.516349 67.8225 0.895475 70.1048 1.53257C74.9435 2.88741 79.3305 5.00837 82.9354 8.58901C84.2257 9.87933 85.0563 11.2499 84.1934 12.8386C86.4112 15.0644 88.6208 17.0806 90.5724 19.2902C93.2499 22.3628 93.2741 25.7418 90.8628 28.9676C88.9758 31.4948 87.713 34.4328 87.1773 37.5409C87.0335 38.0814 87.0458 38.6515 87.2128 39.1853C87.3798 39.7191 87.6947 40.1942 88.1209 40.5564C89.5371 41.8074 90.5466 43.4537 91.0195 45.2833C91.4923 47.1129 91.4068 49.0423 90.7741 50.8229C90.2665 52.6703 89.2349 54.3312 87.8038 55.6049C86.3727 56.8786 84.6033 57.7101 82.7096 57.9999C81.3628 58.2579 80.9838 58.8069 80.7418 60.0246C79.7856 65.281 76.9792 70.0207 72.8305 73.387C72.4137 73.6836 72.0789 74.0811 71.8574 74.5423C71.636 75.0035 71.5352 75.5137 71.5644 76.0245C71.637 80.2826 71.5644 80.2823 75.5483 81.8146C84.0483 85.1049 92.5966 88.2666 101.032 91.7101C109.766 95.2666 114.274 102.113 114.806 111.355C115.185 117.968 114.903 124.621 114.895 131.258C114.895 132.871 113.968 133.847 112.605 133.823C111.242 133.799 110.443 132.823 110.411 131.177C110.411 130.371 110.411 129.564 110.411 128.661H97.0644V148.766C101.04 148.766 105.016 148.815 108.992 148.766C110.04 148.766 110.468 147.879 110.468 146.847C110.468 145.355 110.468 143.855 110.468 142.363C110.468 140.871 111.411 139.871 112.693 139.871C113.006 139.877 113.315 139.946 113.6 140.076C113.885 140.205 114.14 140.392 114.35 140.624C114.56 140.856 114.721 141.129 114.821 141.425C114.922 141.721 114.961 142.035 114.935 142.347C114.976 143.847 114.935 145.347 114.935 146.839C114.895 150.726 112.331 153.29 108.435 153.29C96.8547 153.29 85.2768 153.29 73.7015 153.29H43.3306C42.9354 153.29 42.5241 153.29 42.137 153.29C41.8367 153.296 41.5384 153.241 41.2593 153.13C40.9802 153.019 40.726 152.854 40.5114 152.644C40.2968 152.433 40.1261 152.183 40.0092 151.906C39.8923 151.63 39.8316 151.333 39.8306 151.032C39.8312 150.731 39.8932 150.434 40.0126 150.157C40.132 149.881 40.3064 149.632 40.5252 149.425C40.744 149.218 41.0027 149.058 41.2853 148.955C41.568 148.851 41.8687 148.806 42.1693 148.822C44.5887 148.774 47.0645 148.822 49.508 148.822H51.0403V97.9113C50.8658 97.9713 50.6982 98.0497 50.5403 98.1452C48.387 99.6774 46.508 99.6129 44.4193 97.9113C41.0725 95.1452 37.7177 92.3957 34.4113 89.5892C34.1565 89.3282 33.8246 89.1559 33.4645 89.0978C33.1044 89.0397 32.7352 89.0987 32.4112 89.2663C26.9113 91.468 21.371 93.5811 15.871 95.7747C9.11291 98.4601 5.2984 103.556 4.58066 110.677C4.15324 115.024 4.50001 119.444 4.50001 123.944H17.9758V120.113C17.9758 117.065 17.9758 114.024 17.9758 110.976C17.9758 108.799 18.6855 107.75 20.2016 107.75C21.7177 107.75 22.4597 108.726 22.4597 110.911C22.4597 122.89 22.4597 134.865 22.4597 146.839V148.831H28.3387C29.3871 148.831 30.4354 148.831 31.4758 148.831C31.7762 148.821 32.0754 148.872 32.3555 148.981C32.6356 149.09 32.8908 149.255 33.1055 149.465C33.3203 149.675 33.4903 149.927 33.6052 150.205C33.7201 150.482 33.7776 150.781 33.7742 151.081C33.7679 151.381 33.7023 151.676 33.581 151.95C33.4598 152.224 33.2853 152.472 33.0678 152.678C32.8503 152.885 32.594 153.045 32.3138 153.152C32.0336 153.258 31.7351 153.309 31.4354 153.299C31.1854 153.299 30.9355 153.299 30.6855 153.299H6.78225C2.49193 153.299 0.0080645 150.798 0 146.5C0 135.21 0 123.933 0 112.669C0 102.879 5.36291 95.0486 14.4516 91.4841C23.5403 87.9196 32.7258 84.3388 41.8709 80.8065C42.3076 80.6838 42.6891 80.4155 42.9517 80.0457C43.2144 79.6759 43.3424 79.2273 43.3145 78.7746C43.506 77.5203 43.3562 76.2377 42.8809 75.0613C42.4055 73.8849 41.622 72.8582 40.6129 72.0891C36.7742 68.8633 34.75 64.3391 33.8951 59.3875C33.7419 58.5004 33.379 58.2667 32.5887 58.1377C28.4516 57.4522 25.5403 55.1614 24.1613 51.2017C23.4807 49.4149 23.3241 47.4711 23.7098 45.5983C24.0955 43.7256 25.0074 42.0022 26.3387 40.6297C26.5929 40.3715 26.7699 40.0475 26.8497 39.6941C26.9295 39.3407 26.9089 38.9716 26.7903 38.6293C26.0039 35.4439 25.4221 32.2115 25.0483 28.9519C24.8794 26.3736 25.1217 23.7849 25.7661 21.2827C26.7097 17.5973 29.3467 15.4193 33.129 14.6854C33.3506 14.6541 33.5633 14.5774 33.7536 14.4594C33.9438 14.3414 34.1073 14.1849 34.2338 14.0003C36.4596 7.95189 41.0886 4.42004 46.8709 2.32327C49.6532 1.31521 52.6612 0.936144 55.5644 0.274855L56.8628 0L63.137 0.024414ZM63.8467 148.75H92.4192V146.903C92.4192 134.726 92.4192 122.549 92.4192 110.371C92.4192 108.661 93.2257 107.766 94.6208 107.758C96.016 107.75 96.8789 108.686 96.895 110.339C96.895 114.186 96.895 118.024 96.895 121.871V123.984H110.113C110.113 118.96 110.621 113.968 109.984 109.129C109.177 103.04 105.556 98.4919 99.7579 96.0968C93.9596 93.7016 88.1531 91.5728 82.3547 89.2986C82.053 89.1455 81.7108 89.0914 81.3764 89.1435C81.0421 89.1956 80.7326 89.3516 80.4918 89.5892C77.1451 92.4279 73.758 95.234 70.3628 98.0081C68.3951 99.621 66.4273 99.6615 64.3628 98.1696C64.1934 98.0635 64.0153 97.9719 63.8306 97.8955L63.8467 148.75ZM37.9999 37.1613C37.9999 41.9032 37.9999 46.5402 37.9999 51.1773C37.9485 53.5191 38.0347 55.862 38.258 58.1936C39.4596 67.742 48.0806 74.8309 58.008 74.5486C67.7822 74.2744 76.0806 66.6614 76.5967 57.0808C76.9354 50.7663 76.7418 44.4199 76.7257 38.0812C76.6676 37.83 76.5502 37.5964 76.3832 37.3999C76.2162 37.2035 76.0046 37.0496 75.766 36.9518C72.6693 36.0567 71.008 34.258 70.7096 31.0483C70.7065 30.4006 70.4673 29.7761 70.0367 29.2921C69.6062 28.8081 69.0139 28.498 68.3709 28.4195C61.5133 26.7461 54.3645 26.6576 47.4677 28.1612C44.5403 28.7902 44.4838 28.8953 43.9435 31.8792C43.7524 33.0466 43.2284 34.1344 42.4345 35.0113C41.6405 35.8882 40.6104 36.5168 39.4677 36.8227C39.0967 36.9598 38.6451 37.0242 38.0322 37.1613H37.9999ZM77.7983 10.0483C77.2983 9.70157 76.9112 9.37927 76.4757 9.12927C67.3628 3.87121 57.8225 3.06476 48 6.70992C43.3629 8.43572 39.6612 11.3309 38.1774 16.3873C37.6935 18.0567 36.2338 18.8064 34.5322 19.0886C31.5645 19.5322 30.2903 20.6292 29.6935 23.5485C28.758 28.3388 29.8951 32.9194 31.1129 37.5645L33.3709 37.1613C34 33.879 34.6451 33.2097 37.8387 32.5242C38.3095 32.4646 38.7433 32.2384 39.0614 31.8863C39.3795 31.5341 39.5609 31.0794 39.5725 30.605C40.1209 26.5727 41.7661 24.8467 45.7096 23.9273C53.4559 22.0897 61.5261 22.1041 69.266 23.9683C72.9515 24.8392 74.6773 26.7581 75.137 30.5404C75.266 31.613 75.7338 32.4117 76.8306 32.5085C79.4515 32.7423 80.9193 34.1213 81.266 36.71C81.334 36.8776 81.4438 37.0247 81.585 37.1377C81.7262 37.2506 81.8941 37.3255 82.0725 37.355C82.2386 37.3153 82.3919 37.2337 82.5175 37.118C82.6431 37.0022 82.737 36.8559 82.7902 36.6935C83.4719 32.7447 85.1111 29.0237 87.5644 25.8552C87.9408 25.3757 88.1358 24.7784 88.1152 24.1691C88.0945 23.5598 87.8595 22.9777 87.4515 22.5247C85.2023 19.452 82.2302 16.9813 78.7983 15.3312C75.9354 14.057 75.5886 12.4193 77.8305 10.0483H77.7983ZM17.8871 148.831V128.67H4.50001C4.50001 134.904 4.50001 141.024 4.50001 147.145C4.48103 147.363 4.50939 147.583 4.58317 147.79C4.65694 147.996 4.77437 148.185 4.92747 148.342C5.08058 148.499 5.26574 148.621 5.47032 148.7C5.67489 148.778 5.89408 148.812 6.11291 148.799C10.0242 148.855 13.9435 148.831 17.9193 148.831H17.8871ZM59.1773 148.782V93.8144H55.7096V148.782H59.1773ZM47.9354 77.1775C47.3951 79.5968 47.5483 81.6133 49.8548 82.9439C50.7168 83.5314 51.5262 84.1926 52.2741 84.9199C53.5564 86.0086 55.0483 86.9197 55.4112 88.7584C55.4112 88.9197 55.6532 89.1614 55.7822 89.1695C56.8714 89.2663 57.9671 89.2663 59.0564 89.1695C59.3628 89.1211 59.508 88.2744 59.8144 87.8551C60.2123 87.2312 60.6834 86.6572 61.2177 86.1453C62.5967 84.9276 64.0402 83.7821 65.4515 82.5966C67.2418 81.1047 67.6209 79.6618 66.8144 77.2909C60.7523 79.6829 54.0007 79.642 47.9677 77.1775H47.9354ZM47.5886 94.7256L50.9838 89.6853C49.0241 88.0724 47.2015 86.5165 45.3386 85.0246C45.1744 84.9015 44.9863 84.8137 44.7862 84.7679C44.5862 84.722 44.3788 84.7191 44.1774 84.7584C42.2741 85.4358 40.3951 86.2016 38.3064 87.0242L47.5886 94.7256ZM76.5321 87.073C74.4192 86.2666 72.5806 85.5079 70.7257 84.8143C70.571 84.7547 70.4053 84.729 70.2398 84.7387C70.0742 84.7485 69.9127 84.7937 69.766 84.871C67.8064 86.4839 65.879 88.0968 63.9032 89.7097L67.3144 94.7343L76.5321 87.073ZM33.4516 41.9118C32.679 41.9485 31.922 42.1419 31.2266 42.4804C30.5312 42.8189 29.9119 43.2953 29.4065 43.8807C28.9011 44.4661 28.52 45.1484 28.2865 45.8858C28.053 46.6231 27.972 47.4 28.0483 48.1697C28.2096 51.1697 30.758 53.7018 33.4516 53.5163V41.9118ZM81.3708 53.5644C82.7814 53.4867 84.1134 52.8904 85.1108 51.89C86.1082 50.8897 86.7006 49.556 86.7741 48.1453C86.8071 46.6294 86.2704 45.1562 85.27 44.0169C84.2696 42.8776 82.8782 42.1553 81.3708 41.9921V53.5644Z" fill="url(#paint0_linear_1202_248)"/>
</g>
<defs>
<linearGradient id="paint0_linear_1202_248" x1="57.5018" y1="0" x2="57.5018" y2="153.3" gradientUnits="userSpaceOnUse">
<stop stop-color="#0D5954"/>
<stop offset="1" stop-color="#4ABA78"/>
</linearGradient>
</defs>
</svg>
