<svg width="155" height="129" viewBox="0 0 155 129" fill="none" xmlns="http://www.w3.org/2000/svg">
<g id="Group 206">
<path id="Vector" d="M47.6654 113.495C41.6508 113.587 35.6637 113.569 29.7779 111.895C20.6505 109.255 12.715 103.543 7.31301 95.7264C1.91105 87.9098 -0.625879 78.4683 0.131144 68.9969C0.888166 59.5255 4.89269 50.6059 11.4677 43.7466C18.0426 36.8872 26.7846 32.508 36.2155 31.3509C37.2547 31.2313 37.4663 30.6985 37.733 29.8708C43.0578 13.3904 54.2409 3.35652 71.3007 0.533157C91.5333 -2.81442 111.049 9.92335 116.815 29.7145C116.891 30.1956 117.135 30.6339 117.504 30.9521C117.872 31.2703 118.342 31.4475 118.829 31.4523C127.81 32.734 136.117 36.9444 142.461 43.4295C148.805 49.9147 152.831 58.3121 153.914 67.3192C156.848 89.8878 140.073 111.113 117.357 113.192C110.809 113.79 104.169 113.505 97.5663 113.478C96.9058 113.447 96.2579 113.286 95.6597 113.004C95.0615 112.723 94.5249 112.325 94.0805 111.836C93.6362 111.346 93.2929 110.774 93.0704 110.151C92.848 109.528 92.7506 108.868 92.784 108.207C92.8153 106.874 93.3684 105.605 94.3245 104.675C95.2806 103.745 96.5634 103.227 97.8974 103.232C103.047 103.186 108.207 103.232 113.357 103.232C120.345 103.245 127.131 100.888 132.605 96.5446C138.08 92.2012 141.918 86.1288 143.494 79.3206C148.093 60.4216 133.654 41.7528 114.203 41.3666C110.175 41.2838 108.354 39.7297 107.646 35.766C106.374 28.6607 102.65 22.2258 97.1242 17.582C91.598 12.9382 84.6186 10.379 77.4004 10.3495C70.1821 10.32 63.182 12.8219 57.618 17.4203C52.054 22.0187 48.2784 28.4226 46.948 35.5172C46.1019 40.0511 44.6672 41.2562 40.0229 41.3666C24.7657 41.7252 11.5134 54.1777 10.3086 69.3705C9.00267 85.2899 19.6064 99.7194 34.8912 102.478C38.1768 102.956 41.4944 103.18 44.8144 103.149C48.5666 103.26 52.328 103.149 56.0894 103.149C59.483 103.149 61.8373 105.292 61.8097 108.336C61.7822 111.38 59.4462 113.449 56.0159 113.459C53.2477 113.505 50.4519 113.495 47.6654 113.495Z" fill="url(#paint0_linear_1202_254)"/>
<path id="Vector_2" d="M72.1479 59.0336C71.5226 59.6038 71.1363 59.9533 70.7776 60.2936L55.3917 75.6701C54.7239 76.4177 53.8473 76.9482 52.8751 77.1924C51.903 77.4367 50.8799 77.3838 49.9381 77.0406C49.0311 76.7631 48.2246 76.227 47.617 75.4986C47.0095 74.7702 46.6272 73.8811 46.5169 72.939C46.3706 72.1686 46.4175 71.3733 46.6534 70.6255C46.8893 69.8776 47.3069 69.2002 47.8688 68.6532C56.4524 60.0145 65.0727 51.3969 73.7298 42.8011C75.937 40.6031 78.9258 40.8245 81.3078 43.1972C89.2169 51.0879 97.1137 58.9845 104.998 66.8875C105.532 67.4209 106.074 67.9362 106.589 68.488C107.063 68.971 107.436 69.5426 107.689 70.1701C107.941 70.7976 108.068 71.4687 108.061 72.1451C108.054 72.8214 107.914 73.4897 107.649 74.1119C107.384 74.7342 106.999 75.2982 106.516 75.7716C106.033 76.245 105.461 76.6184 104.834 76.8709C104.206 77.1234 103.535 77.2496 102.859 77.2427C102.182 77.2359 101.514 77.0965 100.892 76.8314C100.269 76.5662 99.7054 76.1811 99.232 75.698C94.0451 70.554 88.8797 65.3918 83.7357 60.211C83.3954 59.8799 83.0459 59.5761 82.4298 58.9967V122.674C82.4608 123.372 82.4269 124.07 82.3286 124.762C82.1057 126.012 81.4281 127.136 80.4261 127.916C79.4242 128.696 78.1689 129.077 76.9022 128.987C75.6354 128.897 74.447 128.342 73.5657 127.427C72.6845 126.513 72.1729 125.304 72.1295 124.035C72.1295 123.492 72.1295 122.959 72.1295 122.417V59.0336H72.1479Z" fill="url(#paint1_linear_1202_254)"/>
</g>
<defs>
<linearGradient id="paint0_linear_1202_254" x1="77.1238" y1="0" x2="77.1238" y2="113.569" gradientUnits="userSpaceOnUse">
<stop stop-color="#0D5954"/>
<stop offset="1" stop-color="#4ABA78"/>
</linearGradient>
<linearGradient id="paint1_linear_1202_254" x1="77.2475" y1="41.2773" x2="77.2475" y2="129" gradientUnits="userSpaceOnUse">
<stop stop-color="#0D5954"/>
<stop offset="1" stop-color="#4ABA78"/>
</linearGradient>
</defs>
</svg>
