<svg width="187" height="154" viewBox="0 0 187 154" fill="none" xmlns="http://www.w3.org/2000/svg">
<g id="Group 208">
<path id="Vector" d="M0 142.087C0.444823 141.046 0.95167 140.033 1.51781 139.052C2.31718 137.756 3.43548 136.687 4.76589 135.946C6.09631 135.206 7.5944 134.819 9.11701 134.823C11.3431 134.772 13.5693 134.823 16.0079 134.823V132.546C16.0079 114.622 16.0079 96.7019 16.0079 78.785C16.0079 71.5703 20.0554 67.5024 27.2093 67.4923C34.3633 67.4822 41.497 67.4923 48.6409 67.4923H50.867V11.1306C50.867 4.18917 55.0056 0 61.9167 0H119.857C126.535 0 130.775 4.20889 130.785 10.8569C130.785 18.1222 130.785 25.3875 130.785 32.6528C130.815 33.0772 130.815 33.504 130.785 33.9285C130.721 34.6305 130.381 35.2779 129.841 35.7309C129.301 36.1839 128.604 36.4055 127.901 36.3465C127.564 36.348 127.23 36.2814 126.919 36.1508C126.608 36.0203 126.326 35.8284 126.091 35.5866C125.856 35.3448 125.672 35.0582 125.55 34.7437C125.428 34.4292 125.371 34.0937 125.382 33.7565C125.301 31.5203 125.382 29.2834 125.382 27.037C125.382 21.6539 125.382 16.2606 125.382 10.847C125.382 7.29535 123.54 5.47389 120.008 5.45365C115.9 5.45365 111.782 5.45365 107.441 5.45365C107.441 6.17209 107.36 6.79945 107.35 7.47741C107.35 10.2601 107.35 13.0526 107.35 15.8353C107.339 17.4013 106.716 18.9011 105.614 20.0132C104.511 21.1253 103.017 21.7622 101.451 21.786C94.1247 21.8669 86.7987 21.8669 79.4727 21.786C78.6664 21.7598 77.8732 21.5747 77.1386 21.2415C76.4039 20.9083 75.7422 20.4336 75.1913 19.8442C74.6405 19.2549 74.2114 18.5621 73.9286 17.8066C73.6457 17.0511 73.5147 16.2472 73.5431 15.441C73.4824 12.2941 73.5431 9.14704 73.4824 6.00011C73.4824 5.89892 73.3913 5.78741 73.2901 5.54456C69.0605 5.54456 64.7803 5.43326 60.5102 5.54456C59.4623 5.6218 58.4771 6.07336 57.7341 6.81633C56.9911 7.55929 56.5399 8.54419 56.4627 9.59207C56.4204 9.95133 56.4034 10.3134 56.4121 10.6751C56.4121 29.1452 56.4121 47.6119 56.4121 66.0753C56.4121 66.4294 56.4627 66.7841 56.5031 67.4014H58.5977C67.1885 67.4014 75.7996 67.452 84.3803 67.4014C87.6689 67.4014 90.6236 68.0284 93.1533 70.5783C96.1889 67.3403 100.085 67.3607 104.061 67.4113C110.416 67.4821 116.781 67.4113 123.135 67.4113H125.311V65.2759C125.311 59.2721 125.311 53.2789 125.311 47.2953C125.311 45.0085 126.323 43.7938 128.063 43.814C129.803 43.8343 130.775 45.0687 130.775 47.3556C130.775 53.9429 130.775 60.5103 130.775 67.4113H132.981C141.399 67.4113 149.818 67.6743 158.278 67.3302C166.737 66.9862 170.572 72.6021 170.481 79.4727C170.228 97.0794 170.39 114.706 170.39 132.322V134.761C172.636 134.761 174.791 134.761 176.947 134.761C179.023 134.783 181.03 135.511 182.639 136.824C184.248 138.136 185.362 139.957 185.801 141.987C186.292 143.947 186.103 146.015 185.265 147.853C184.426 149.692 182.988 151.191 181.186 152.105C179.49 152.876 177.647 153.272 175.783 153.269C154.534 153.339 133.284 153.269 112.035 153.269C78.5013 153.269 44.9576 153.208 11.414 153.269C6.24327 153.269 1.92257 151.751 0.0404837 145.589L0 142.087ZM21.4821 134.802H46.4552C47.0577 134.746 47.664 134.746 48.2665 134.802C48.9426 134.858 49.5686 135.181 50.0069 135.699C50.4452 136.217 50.6599 136.888 50.6039 137.565C50.6271 138.213 50.4007 138.845 49.9714 139.331C49.5421 139.816 48.9427 140.119 48.2968 140.175C47.6944 140.231 47.088 140.231 46.4856 140.175H10.7158C7.36645 140.175 5.55519 141.471 5.49448 143.889C5.43376 146.307 7.30575 147.764 10.7259 147.764H175.307C175.983 147.793 176.659 147.769 177.331 147.693C178.238 147.557 179.064 147.094 179.654 146.392C180.244 145.69 180.557 144.796 180.535 143.879C180.513 142.962 180.156 142.085 179.533 141.413C178.909 140.74 178.062 140.318 177.149 140.226C176.425 140.18 175.698 140.18 174.974 140.226H62.1393C61.4659 140.283 60.7889 140.283 60.1155 140.226C59.4711 140.129 58.883 139.804 58.4579 139.31C58.0328 138.816 57.799 138.186 57.799 137.534C57.799 136.882 58.0328 136.252 58.4579 135.758C58.883 135.264 59.4711 134.939 60.1155 134.842C60.6574 134.792 61.2028 134.792 61.7446 134.842H90.4212C90.4212 115.536 90.4212 96.5333 90.4212 77.5201C90.4049 76.9143 90.2637 76.3179 90.0063 75.7691C89.7548 75.044 89.2973 74.4081 88.6899 73.9391C88.0824 73.47 87.3513 73.1877 86.5862 73.1278C81.9316 73.0165 77.2871 73.1278 72.4199 73.1278C72.4199 76.1634 72.4199 79.1992 72.4199 82.1032C72.4199 87.0007 70.0623 89.3482 65.185 89.3583C58.9451 89.3583 52.7086 89.3583 46.4754 89.3583C40.7685 89.3583 38.5626 87.1526 38.5626 81.4659V73.0675C34.6163 73.0675 30.933 73.0675 27.2498 73.0675C23.091 73.0675 21.4821 74.7065 21.4821 78.9362V134.883V134.802ZM146.833 73.0774C146.833 76.194 146.833 79.1486 146.833 82.1843C146.833 86.7984 144.395 89.2674 139.75 89.2674C133.213 89.2674 126.677 89.2674 120.14 89.2674C115.425 89.2674 112.976 86.809 112.966 82.124C112.966 79.0884 112.966 76.1134 112.966 73.0171C109.05 73.0171 105.377 73.0171 101.693 73.0171C97.474 73.0171 95.8954 74.605 95.8954 78.8245V134.711H164.754C164.754 134.023 164.845 133.436 164.845 132.849C164.845 114.804 164.845 96.7652 164.845 78.7336C164.863 78.0556 164.812 77.3776 164.693 76.7099C164.318 74.7873 162.932 73.1379 161.131 73.0873C156.446 72.9861 151.741 73.0675 146.833 73.0675V73.0774ZM78.8959 5.60583C78.8959 8.85395 78.8959 11.9301 78.8959 15.0062C78.8959 16.0181 79.3614 16.3817 80.3429 16.3817C87.0516 16.3817 93.7705 16.3821 100.479 16.3214C100.914 16.3214 101.704 15.6338 101.714 15.2493C101.815 12.072 101.774 8.88431 101.774 5.60583H78.8959ZM118.47 73.0981C118.47 76.3159 118.47 79.4528 118.531 82.5795C118.618 82.8527 118.774 83.0985 118.983 83.295C119.192 83.4914 119.447 83.6316 119.725 83.7021C126.505 83.7729 133.284 83.7628 140.054 83.7021C140.489 83.7021 141.278 83.1254 141.278 82.8117C141.379 79.5636 141.339 76.3253 141.339 73.0873L118.47 73.0981ZM66.9153 73.0981H44.0571C44.0571 76.3361 44.0571 79.4627 44.1178 82.5894C44.1178 82.984 44.9172 83.6722 45.3624 83.6823C52.1082 83.7498 58.8743 83.7498 65.6606 83.6823C65.937 83.6161 66.1923 83.481 66.4028 83.29C66.6132 83.099 66.7721 82.8581 66.8648 82.5894C66.9558 79.4728 66.9153 76.346 66.9153 73.108V73.0981Z" fill="url(#paint0_linear_1202_233)"/>
</g>
<defs>
<linearGradient id="paint0_linear_1202_233" x1="93.0342" y1="0" x2="93.0342" y2="153.3" gradientUnits="userSpaceOnUse">
<stop stop-color="#0D5954"/>
<stop offset="1" stop-color="#4ABA78"/>
</linearGradient>
</defs>
</svg>
