<svg width="149" height="154" viewBox="0 0 149 154" fill="none" xmlns="http://www.w3.org/2000/svg">
<g id="Group 204">
<path id="Vector" d="M32.3158 13.3801C32.4297 12.0355 32.6128 10.6979 32.8644 9.37221C33.5016 6.60565 35.0924 4.15091 37.3579 2.43995C39.6234 0.728985 42.4189 -0.128437 45.2542 0.015591C55.7544 0.015591 66.2393 0.015591 76.7394 0.015591H87.9863C95.9261 0.015591 100.757 4.66297 101.153 12.6181C101.153 12.7857 101.153 12.9388 101.26 13.2893L103.074 13.3801C107.187 13.3274 111.3 13.5363 115.387 14.0051C120.391 14.9636 124.918 17.6 128.221 21.4791C131.524 25.3582 133.405 30.2481 133.553 35.3407C133.781 44.4845 133.644 53.5519 133.629 62.65C133.629 63.8626 133.147 65.0251 132.29 65.8825C131.433 66.7399 130.27 67.2219 129.057 67.2219C127.845 67.2219 126.682 66.7399 125.824 65.8825C124.967 65.0251 124.485 63.8626 124.485 62.65C124.485 54.192 124.485 45.7185 124.485 37.2605C124.579 35.2966 124.265 33.3342 123.562 31.498C122.859 29.6618 121.782 27.9919 120.401 26.5927C118.454 24.4751 115.784 23.1643 112.918 22.9197C109.093 22.7216 105.299 22.9197 101.306 22.9197C101.262 24.0013 101.16 25.08 101.001 26.1507C100.473 29.0279 98.9273 31.6196 96.6472 33.4521C94.367 35.2846 91.5041 36.2354 88.5806 36.1324C75.8809 36.1324 63.1812 36.1324 50.4815 36.1324C48.2412 36.1324 45.9096 36.255 43.7455 36.0416C40.8092 35.8031 38.0586 34.5094 36.0023 32.3999C33.9459 30.2903 32.723 27.5072 32.5596 24.5657C32.5596 23.9866 32.4681 23.4075 32.4377 23.0418C28.3758 22.8125 24.3032 22.8486 20.2459 23.1489C14.1501 23.9414 9.5782 29.6105 9.31912 35.7217C9.31912 36.1941 9.31912 36.682 9.31912 37.1697V129.734C9.18244 132.942 10.1752 136.097 12.1245 138.647C14.0738 141.198 16.8561 142.984 19.9869 143.694C21.3503 143.974 22.7405 144.102 24.1321 144.075C35.1046 144.075 46.0772 144.075 57.0498 144.075C60.6616 144.075 62.8104 145.782 62.8561 148.647C62.9018 151.512 60.6768 153.295 56.9735 153.295C45.7419 153.295 34.495 153.295 23.2482 153.295C17.8679 153.371 12.6334 151.546 8.46589 148.142C4.29841 144.739 1.46517 139.974 0.46488 134.687C0.152121 133.06 -0.00103048 131.408 0.007662 129.751C0.007662 98.8446 0.007662 67.9374 0.007662 37.0313C-0.0717294 33.9524 0.466534 30.8889 1.59065 28.0215C2.71476 25.154 4.40198 22.5408 6.55265 20.3361C8.70333 18.1315 11.2739 16.3801 14.1126 15.1853C16.9513 13.9905 20.0006 13.377 23.0805 13.3801C26.2199 13.3801 29.2678 13.3801 32.3158 13.3801ZM66.7117 26.8056H88.2454C90.8361 26.8056 91.8876 25.7859 91.9181 23.2561C91.9181 19.7713 91.9181 16.2907 91.9181 12.816C91.9181 10.332 90.8513 9.25017 88.3977 9.25017C74.0521 9.25017 59.7116 9.25017 45.3762 9.25017C42.8616 9.25017 41.7644 10.3937 41.7491 12.9083C41.7491 16.2915 41.7491 19.6589 41.7491 23.0269C41.7491 25.77 42.8007 26.8219 45.5286 26.8219L66.7117 26.8056Z" fill="url(#paint0_linear_1202_216)"/>
<path id="Vector_2" d="M132.029 78.9094C138.612 79.2447 143.916 82.2624 146.766 88.7393C149.615 95.2161 148.518 101.282 143.992 106.707C143.504 107.286 142.971 107.803 142.468 108.337C129.402 121.412 116.347 134.488 103.302 147.564C101.502 149.488 99.1089 150.755 96.5051 151.161C92.5428 151.77 88.5957 152.517 84.6334 153.142C77.8213 154.209 72.8074 149.011 73.9656 142.184C74.6819 138.13 75.3525 134.076 76.0078 129.992C76.322 127.914 77.294 125.992 78.7814 124.506C92.3142 110.994 105.832 97.471 119.334 83.9382C120.998 82.2824 122.982 80.9825 125.164 80.1179C127.347 79.2533 129.682 78.8424 132.029 78.9094ZM83.018 144.44C87.1327 143.617 90.9426 142.916 94.7373 142.078C95.551 141.88 96.2977 141.469 96.9014 140.889C103.475 134.366 110.018 127.819 116.53 121.246L125.003 112.803L114.336 102.135C114.237 102.168 114.147 102.225 114.076 102.302C104.628 111.75 95.1742 121.204 85.7155 130.663C85.3976 130.944 85.1651 131.309 85.0449 131.715C84.4048 135.754 83.7495 139.868 83.018 144.333V144.44ZM131.648 105.594C133.653 103.889 135.566 102.079 137.378 100.169C138.522 98.7961 139.118 97.0496 139.054 95.2638C138.989 93.478 138.267 91.7776 137.027 90.491C135.875 89.1565 134.27 88.2945 132.521 88.0696C130.772 87.8446 129.001 88.2728 127.548 89.2721C125.324 91.1042 123.207 93.0641 121.209 95.1402L131.648 105.594Z" fill="url(#paint1_linear_1202_216)"/>
<path id="Vector_3" d="M61.2711 68.0265C53.1331 68.0265 44.9951 68.0265 36.8876 68.0265C35.6751 68.1316 34.4705 67.7499 33.5388 66.9668C32.607 66.1838 32.0246 65.063 31.9195 63.8504C31.8144 62.6379 32.1953 61.4336 32.9784 60.5019C33.7615 59.5702 34.8826 58.9878 36.0952 58.8827C36.6267 58.8269 37.1609 58.8003 37.6953 58.8053C53.4836 58.8053 69.277 58.8053 85.0755 58.8053C87.4528 58.8053 89.4645 59.34 90.4551 61.7327C90.7351 62.4286 90.8397 63.182 90.7594 63.9278C90.6792 64.6737 90.4167 65.388 89.995 66.0084C89.5734 66.6288 89.0056 67.1356 88.3416 67.4848C87.6777 67.8339 86.9381 68.0143 86.188 68.0101C81.7532 68.0101 77.3032 68.0101 72.8685 68.0101L61.2711 68.0265Z" fill="url(#paint2_linear_1202_216)"/>
<path id="Vector_4" d="M47.6936 94.3298C44.1123 94.3298 40.5309 94.3298 37.0258 94.3298C35.8012 94.3298 34.6267 93.843 33.7607 92.977C32.8947 92.111 32.4082 90.9365 32.4082 89.7118C32.4082 88.4871 32.8947 87.3125 33.7607 86.4466C34.6267 85.5806 35.8012 85.0938 37.0258 85.0938C44.2393 85.0938 51.4527 85.0938 58.6662 85.0938C59.2726 85.0998 59.8718 85.2252 60.4297 85.4628C60.9877 85.7004 61.4934 86.0463 61.9179 86.4793C62.3424 86.9123 62.6775 87.4244 62.904 87.9869C63.1306 88.5494 63.2441 89.1515 63.2381 89.7579C63.2321 90.3643 63.1067 90.9636 62.8691 91.5215C62.6315 92.0794 62.2863 92.5852 61.8532 93.0097C61.4202 93.4343 60.9078 93.7685 60.3453 93.995C59.7827 94.2215 59.1811 94.3358 58.5747 94.3298C54.8563 94.3451 51.2749 94.3298 47.6936 94.3298Z" fill="url(#paint3_linear_1202_216)"/>
</g>
<defs>
<linearGradient id="paint0_linear_1202_216" x1="66.8419" y1="0" x2="66.8419" y2="153.297" gradientUnits="userSpaceOnUse">
<stop stop-color="#0D5954"/>
<stop offset="1" stop-color="#4ABA78"/>
</linearGradient>
<linearGradient id="paint1_linear_1202_216" x1="111.066" y1="78.9023" x2="111.066" y2="153.281" gradientUnits="userSpaceOnUse">
<stop stop-color="#0D5954"/>
<stop offset="1" stop-color="#4ABA78"/>
</linearGradient>
<linearGradient id="paint2_linear_1202_216" x1="61.344" y1="58.8047" x2="61.344" y2="68.0436" gradientUnits="userSpaceOnUse">
<stop stop-color="#0D5954"/>
<stop offset="1" stop-color="#4ABA78"/>
</linearGradient>
<linearGradient id="paint3_linear_1202_216" x1="47.8232" y1="85.0938" x2="47.8232" y2="94.3366" gradientUnits="userSpaceOnUse">
<stop stop-color="#0D5954"/>
<stop offset="1" stop-color="#4ABA78"/>
</linearGradient>
</defs>
</svg>
