<svg width="154" height="154" viewBox="0 0 154 154" fill="none" xmlns="http://www.w3.org/2000/svg">
<g id="Group 205">
<path id="Vector" d="M78.4161 0C82.3713 0.706935 85.3601 3.05201 88.1879 5.71868C90.1834 7.59787 92.3311 9.2982 94.3176 11.1953C94.7125 11.5988 95.1972 11.9027 95.7322 12.0832C96.2672 12.2636 96.8373 12.3146 97.3959 12.2326C102.658 11.7762 107.928 11.3917 113.199 10.9891C116.433 10.6285 119.686 11.4707 122.338 13.3555C124.991 15.2403 126.856 18.0358 127.579 21.2082C128.734 25.5841 129.754 30.0044 130.783 34.416C130.86 34.8486 131.034 35.2587 131.291 35.615C131.548 35.9713 131.882 36.2654 132.268 36.4749C136.948 39.2221 141.602 42.0229 146.255 44.8327C152.59 48.6537 154.81 55.2663 152.045 62.112C150.255 66.5862 148.34 71.0605 146.559 75.5348C146.322 76.2064 146.322 76.9395 146.559 77.6111C148.277 81.9601 150.094 86.2729 151.875 90.604C154.872 97.8702 152.707 104.421 145.969 108.501C141.405 111.248 136.814 113.951 132.277 116.761C131.599 117.198 131.095 117.86 130.855 118.631C129.754 122.819 128.787 127.043 127.776 131.258C126.049 138.461 120.734 142.56 113.315 142.184C107.884 141.907 102.479 141.351 97.0559 141.011C96.2466 141.003 95.4594 141.275 94.8277 141.781C91.7762 144.349 88.8143 147.016 85.8076 149.638C80.1968 154.542 72.9664 154.514 67.3467 149.593C64.3132 146.908 61.2975 144.224 58.2192 141.629C57.6983 141.207 57.0458 140.983 56.3758 140.994C51.4004 141.307 46.4161 141.548 41.4675 142.138C32 143.257 26.4787 137.253 25.2796 130.756C24.5548 126.801 23.3736 122.927 22.4877 118.989C22.4015 118.461 22.1954 117.96 21.8851 117.524C21.5748 117.088 21.1687 116.729 20.698 116.474C16.8948 114.282 13.2349 111.848 9.36019 109.799C4.62641 107.293 1.11857 103.937 0 98.5143V94.6221C0.554809 93.0471 1.05595 91.4364 1.6734 89.8883C3.32888 85.7898 5.05594 81.7272 6.67563 77.6199C6.91687 76.9519 6.91687 76.221 6.67563 75.5531C4.50113 69.9155 2.20136 64.3135 0.0179146 58.7117V54.5144C0.0984514 54.3981 0.23267 54.291 0.259515 54.1658C0.650599 52.1533 1.48893 50.2545 2.71255 48.6096C3.93618 46.9647 5.51381 45.6155 7.32886 44.6623C11.4273 42.2909 15.4989 39.8839 19.5168 37.3872C20.2809 36.8871 20.8619 36.1523 21.1722 35.2934C22.774 30.4344 24.2684 25.5309 25.7897 20.6271C26.6616 17.6349 28.5476 15.0392 31.1241 13.2856C33.7006 11.532 36.807 10.7296 39.9105 11.0161C45.2796 11.4278 50.6487 11.8306 56.0179 12.278C56.504 12.3458 56.9993 12.2995 57.465 12.1443C57.9306 11.9891 58.3541 11.7291 58.7024 11.3832C60.8143 9.40555 63.0693 7.58882 65.1722 5.61119C67.9642 2.92663 70.9351 0.706935 74.8366 0H78.4161ZM113.629 133.19C116.761 133.306 118.318 132.125 119.069 129.047C120.259 124.107 121.503 119.204 122.649 114.228C122.817 113.375 123.17 112.569 123.683 111.867C124.197 111.165 124.858 110.585 125.62 110.166C130.854 107.079 136.063 103.901 141.28 100.823C144.286 99.0334 144.904 97.1545 143.561 93.9151C141.53 88.9934 139.526 84.0717 137.432 79.15C137.062 78.3364 136.871 77.4535 136.871 76.5598C136.871 75.6662 137.062 74.7824 137.432 73.9688C139.49 69.1634 141.441 64.3138 143.436 59.4816C144.939 55.8216 144.412 54.157 141.047 52.1436C135.919 49.0653 130.801 45.9776 125.646 42.953C124.881 42.5379 124.217 41.96 123.701 41.2594C123.184 40.5589 122.828 39.7535 122.658 38.8999C121.512 33.844 120.268 28.8142 119.025 23.794C118.353 21.0558 116.599 19.7232 113.978 19.9201C107.669 20.3854 101.351 20.8149 95.0425 21.3786C94.2751 21.4689 93.4973 21.3919 92.7622 21.154C92.0271 20.9162 91.352 20.5232 90.7829 20.0005C87.3288 16.9133 83.8299 13.862 80.3668 10.7837C77.6823 8.36758 75.642 8.36758 72.8859 10.7837C69.4138 13.856 65.9388 16.9245 62.4608 19.9909C61.9607 20.481 61.3624 20.8603 60.7053 21.1025C60.0482 21.3446 59.3473 21.4444 58.6487 21.3961L39.8568 19.9559C36.6532 19.7054 35.1499 20.7072 34.1924 23.7766C32.4832 29.2441 30.7383 34.6938 29.0738 40.1793C28.8521 40.9689 28.4763 41.7065 27.9679 42.35C27.4595 42.9936 26.8287 43.5298 26.1119 43.9282C21.4228 46.6665 16.7696 49.4589 12.0895 52.224C8.96644 54.0763 8.34004 55.8748 9.70917 59.2037C11.7136 64.0806 13.6913 68.9753 15.7852 73.8255C16.183 74.6804 16.3891 75.6126 16.3891 76.5555C16.3891 77.4984 16.183 78.4297 15.7852 79.2846C13.6913 84.1347 11.7226 89.0294 9.70917 93.9064C8.37584 97.1547 9.00224 99.0159 12.009 100.806C17.2349 103.911 22.4429 107.07 27.6868 110.121C28.4264 110.531 29.0685 111.095 29.569 111.776C30.0695 112.458 30.4165 113.24 30.5861 114.068C31.7047 118.918 32.9217 123.75 34.0939 128.591C34.9888 132.394 36.4116 133.423 40.3579 133.128C46.1208 132.68 51.8926 132.233 57.6465 131.723C58.5361 131.615 59.4385 131.704 60.2903 131.982C61.1421 132.26 61.9227 132.721 62.5772 133.333C66.0939 136.51 69.6733 139.597 73.2438 142.72C75.5794 144.761 77.7181 144.761 80.0447 142.72C83.5078 139.705 86.9977 136.725 90.3624 133.611C91.1349 132.876 92.0658 132.327 93.0834 132.008C94.101 131.688 95.1783 131.606 96.2326 131.767C101.995 132.349 107.83 132.734 113.629 133.19Z" fill="url(#paint0_linear_1202_225)"/>
<path id="Vector_2" d="M27.248 76.5724C27.2534 66.8028 30.1572 57.2545 35.592 49.1361C41.0267 41.0177 48.7479 34.6944 57.7783 30.9664C66.8087 27.2384 76.7421 26.2732 86.3211 28.1935C95.9001 30.1138 104.694 34.8329 111.59 41.7535C118.485 48.6742 123.173 57.4857 125.058 67.0716C126.944 76.6575 125.943 86.5871 122.182 95.6038C118.421 104.621 112.07 112.319 103.932 117.724C95.7934 123.13 86.2346 125.999 76.465 125.969C63.3991 125.909 50.8878 120.68 41.6655 111.425C32.4431 102.169 27.2597 89.6385 27.248 76.5724ZM76.5992 36.1965C68.611 36.1983 60.8026 38.5685 54.1608 43.0067C47.5189 47.4449 42.3418 53.7522 39.2836 61.1318C36.2254 68.5115 35.4235 76.6318 36.9791 84.4671C38.5347 92.3024 42.378 99.5011 48.0234 105.153C53.6688 110.804 60.8629 114.655 68.6965 116.22C76.53 117.784 84.6515 116.991 92.0345 113.941C99.4175 110.891 105.731 105.721 110.176 99.0836C114.622 92.4467 117 84.6411 117.011 76.6528C117.001 65.9363 112.741 55.6616 105.165 48.0822C97.5891 40.5027 87.3158 36.2378 76.5992 36.2236V36.1965Z" fill="url(#paint1_linear_1202_225)"/>
<path id="Vector_3" d="M72.465 83.9725C72.7515 83.4175 73.0933 82.8929 73.4851 82.4065C80.8408 75.015 88.2084 67.6389 95.588 60.2772C96.1372 59.6231 96.8621 59.1395 97.6772 58.8842C98.4922 58.6289 99.3633 58.6123 100.188 58.8362C100.996 59.0271 101.733 59.448 102.308 60.0482C102.882 60.6485 103.271 61.4026 103.427 62.219C103.847 64.0534 103.087 65.5029 101.807 66.7736C94.6484 73.8907 87.5224 81.0136 80.4291 88.1426C78.8095 89.7713 77.1987 91.4092 75.5611 93.011C73.3866 95.1229 70.8453 95.1229 68.6887 93.011C62.8542 87.2005 57.0347 81.3775 51.2301 75.543C49.2524 73.5475 49.1898 70.8275 51.0063 69.002C51.4377 68.5654 51.9543 68.222 52.524 67.9936C53.0937 67.7651 53.7043 67.6561 54.3179 67.6737C54.9314 67.6914 55.5348 67.835 56.0904 68.0958C56.6461 68.3566 57.1421 68.7292 57.5477 69.1899C62.022 73.6105 66.4515 78.0668 70.899 82.5052C71.2659 82.8363 71.6685 83.2208 72.465 83.9725Z" fill="url(#paint2_linear_1202_225)"/>
</g>
<defs>
<linearGradient id="paint0_linear_1202_225" x1="76.6072" y1="0" x2="76.6072" y2="153.3" gradientUnits="userSpaceOnUse">
<stop stop-color="#0D5954"/>
<stop offset="1" stop-color="#4ABA78"/>
</linearGradient>
<linearGradient id="paint1_linear_1202_225" x1="76.6171" y1="27.2305" x2="76.6171" y2="125.969" gradientUnits="userSpaceOnUse">
<stop stop-color="#0D5954"/>
<stop offset="1" stop-color="#4ABA78"/>
</linearGradient>
<linearGradient id="paint2_linear_1202_225" x1="76.6183" y1="58.6797" x2="76.6183" y2="94.5949" gradientUnits="userSpaceOnUse">
<stop stop-color="#0D5954"/>
<stop offset="1" stop-color="#4ABA78"/>
</linearGradient>
</defs>
</svg>
