<svg width="65" height="75" viewBox="0 0 65 75" fill="none" xmlns="http://www.w3.org/2000/svg">
<g id="Group 185">
<path id="Vector" d="M49.1873 0.00760822C49.8843 0.403456 50.4218 1.02968 50.7075 1.77865C51.0951 2.66035 51.5892 3.50398 51.9768 4.38568C52.0523 4.58647 52.1858 4.76021 52.3604 4.88476C52.5351 5.00931 52.7429 5.07905 52.9573 5.08498C54.0898 5.2218 55.2376 5.389 56.3397 5.54862C56.7424 5.56839 57.1292 5.71183 57.4475 5.95937C57.7657 6.20691 58 6.54647 58.1182 6.93192C58.2396 7.30302 58.2442 7.70244 58.1314 8.07622C58.0186 8.45 57.7938 8.78016 57.4874 9.02214C56.6741 9.78222 55.876 10.6335 55.0323 11.4012C54.8547 11.5413 54.7224 11.7307 54.6521 11.9457C54.5817 12.1608 54.5766 12.3918 54.6371 12.6098C54.8651 13.7651 55.0476 14.9432 55.2528 16.1061C55.3303 16.4659 55.2995 16.8405 55.1642 17.1828C55.0289 17.5251 54.7952 17.8195 54.4927 18.0291C54.2102 18.2628 53.863 18.4049 53.4977 18.4361C53.1323 18.4673 52.7662 18.3864 52.4481 18.204C51.3536 17.6339 50.2515 17.079 49.1721 16.471C49.0023 16.361 48.8044 16.3026 48.6021 16.3026C48.3998 16.3026 48.2018 16.361 48.032 16.471C47.0211 17.0334 45.9798 17.5579 44.9917 18.1052C44.6587 18.3175 44.2692 18.4243 43.8744 18.4116C43.4796 18.3989 43.0979 18.2673 42.7791 18.034C42.4604 17.8007 42.2196 17.4766 42.0881 17.1041C41.9567 16.7316 41.9408 16.3281 42.0426 15.9465C42.2706 14.8063 42.4226 13.6662 42.6506 12.5185C42.6994 12.3218 42.6902 12.1153 42.6242 11.9238C42.5581 11.7322 42.4379 11.5639 42.2782 11.4392C41.4269 10.6792 40.6136 9.82021 39.7775 9.00693C39.4728 8.76357 39.2494 8.43338 39.1367 8.06007C39.024 7.68677 39.0275 7.28799 39.1467 6.91671C39.2686 6.53263 39.5051 6.19506 39.8243 5.94916C40.1436 5.70327 40.5304 5.56086 40.9329 5.54101C42.0578 5.38139 43.2131 5.21419 44.3152 5.07737C44.5291 5.06946 44.736 4.99902 44.9103 4.87474C45.0846 4.75045 45.2186 4.57773 45.2957 4.37807C45.6833 3.48877 46.1698 2.65273 46.5575 1.76344C46.8429 1.0163 47.3807 0.392451 48.0776 0L49.1873 0.00760822ZM41.6397 7.66166C42.3998 8.48255 43.0991 9.3034 43.92 9.99507C44.3286 10.3208 44.6313 10.7605 44.7896 11.2585C44.948 11.7565 44.9548 12.2903 44.8092 12.7922C44.5736 13.8259 44.4368 14.8747 44.2392 16.0377C45.3261 15.4676 46.337 14.9888 47.2795 14.4187C47.684 14.1507 48.1586 14.0078 48.6439 14.0078C49.1292 14.0078 49.6037 14.1507 50.0082 14.4187C50.9507 14.9735 51.9464 15.4449 53.0485 16.0073C52.8509 14.8748 52.7369 13.8639 52.4937 12.8834C52.3264 12.3493 52.3279 11.7766 52.4979 11.2435C52.6679 10.7103 52.9983 10.2425 53.4438 9.90386C54.2039 9.24259 54.8803 8.45211 55.6556 7.62362C54.4547 7.4412 53.3753 7.23595 52.22 7.11434C51.7839 7.08856 51.3644 6.93804 51.0113 6.68067C50.6583 6.4233 50.3866 6.06998 50.2286 5.66265C49.9778 5.08499 49.6814 4.53005 49.3925 3.96759C49.1037 3.40514 48.9289 3.05554 48.6325 2.49308C48.0396 3.69401 47.5075 4.77332 46.9983 5.81463C46.8425 6.17183 46.5927 6.48003 46.2754 6.70628C45.9581 6.93252 45.5853 7.06835 45.1969 7.09921C43.9732 7.28923 42.8254 7.48685 41.6397 7.66166Z" fill="white"/>
<path id="Vector_2" d="M52.2583 23.5867H44.9843V66.4095H52.2583V39.4191C52.2583 38.507 52.6611 37.9901 53.3452 37.9825C54.0293 37.9749 54.4397 38.4919 54.4397 39.3964V66.4628H57.0772C57.6003 66.4219 58.1261 66.4945 58.6186 66.6758C59.111 66.8571 59.5584 67.1428 59.9302 67.5131C60.302 67.8834 60.5893 68.3297 60.7725 68.8214C60.9557 69.3131 61.0304 69.8387 60.9916 70.362C60.9916 70.8712 60.9916 71.3805 60.9916 71.8822C60.9876 72.5682 60.7117 73.2248 60.2244 73.7078C59.7371 74.1908 59.0782 74.4609 58.3921 74.4588C57.594 74.4588 56.7959 74.4588 55.9903 74.4588H24.2113C23.9909 74.4588 23.7705 74.4588 23.5501 74.4588C23.2618 74.4588 22.9853 74.3442 22.7815 74.1404C22.5777 73.9366 22.4632 73.6601 22.4632 73.3719C22.4632 73.0836 22.5777 72.8072 22.7815 72.6034C22.9853 72.3995 23.2618 72.2849 23.5501 72.2849H57.6548C58.7798 72.2849 58.7797 72.2849 58.7797 71.1676C58.7797 68.8874 58.5365 68.6442 56.2335 68.6442H4.24402C2.61744 68.6442 2.18423 69.085 2.18423 70.7268C2.18423 72.3686 2.05501 72.2925 3.74999 72.2925H17.8571C18.1096 72.2636 18.3646 72.2636 18.6172 72.2925C18.8685 72.3352 19.0966 72.4655 19.2612 72.6602C19.4257 72.855 19.5159 73.1017 19.5159 73.3567C19.5159 73.6116 19.4257 73.8583 19.2612 74.0531C19.0966 74.2479 18.8685 74.3782 18.6172 74.4208C18.4001 74.4476 18.1806 74.4476 17.9635 74.4208H3.05068C1.03647 74.4208 0.0103648 73.4099 0.0103648 71.3805C-0.0205272 70.6792 0.0176793 69.9765 0.124395 69.2826C0.285981 68.4785 0.721089 67.7551 1.35572 67.2355C1.99035 66.7159 2.78535 66.4321 3.60557 66.4324C4.54807 66.4324 5.49058 66.4324 6.55469 66.4324V44.6181C6.55469 43.0979 7.06394 42.5582 8.5917 42.5582H16.2989C17.7203 42.5582 18.2599 43.0979 18.2599 44.542C18.2599 51.4993 18.2599 58.4566 18.2599 65.4139V66.3868H24.637V33.4373C24.637 31.5751 25.093 31.157 26.9172 31.157H34.328C35.7265 31.157 36.3042 31.7499 36.3042 33.156C36.3042 43.9441 36.3042 54.7297 36.3042 65.5127V66.4171H42.6889V23.5486C42.6889 21.8004 43.1221 21.3672 44.8779 21.3672H52.4787C53.8392 21.3672 54.3941 21.9069 54.4017 23.2447V33.7109C54.4017 34.6078 54.0445 35.0639 53.3528 35.0791C52.6611 35.0943 52.2202 34.6154 52.2202 33.7109C52.2202 30.6098 52.2202 27.501 52.2202 24.3999L52.2583 23.5867ZM34.1532 66.4476V33.3765H26.9096V66.4476H34.1532ZM8.81971 44.8081V66.4247H16.0633V44.8081H8.81971Z" fill="white"/>
<path id="Vector_3" d="M62.2156 10.2853C61.8793 10.3157 61.541 10.3157 61.2047 10.2853C60.9345 10.2531 60.6866 10.1193 60.5114 9.91108C60.3362 9.70284 60.2468 9.43575 60.2613 9.16399C60.2758 8.89224 60.3932 8.63611 60.5896 8.44771C60.7859 8.2593 61.0466 8.15265 61.3187 8.14941C61.9471 8.14941 62.5779 8.14941 63.2113 8.14941C63.4956 8.13731 63.773 8.23867 63.9825 8.4311C64.192 8.62353 64.3166 8.89135 64.3287 9.17559C64.3408 9.45983 64.2394 9.73717 64.047 9.94671C63.8546 10.1562 63.5868 10.2808 63.3025 10.2929C62.9407 10.3196 62.5774 10.3196 62.2156 10.2929V10.2853Z" fill="white"/>
<path id="Vector_4" d="M59.8592 12.8086C60.7138 13.3119 61.5363 13.8679 62.3219 14.4732C62.5119 14.6328 62.4587 15.3549 62.2611 15.6286C62.1222 15.7769 61.9492 15.8891 61.7572 15.9553C61.5651 16.0216 61.3597 16.0399 61.1589 16.0086C60.4375 15.7341 59.7671 15.341 59.1751 14.8456C59.0438 14.6886 58.9507 14.5031 58.9032 14.304C58.8558 14.1048 58.8552 13.8974 58.9015 13.6979C58.9927 13.3939 59.4488 13.1734 59.8592 12.8086Z" fill="white"/>
<path id="Vector_5" d="M38.4172 3.9487C38.4172 4.8988 37.6571 5.46884 36.9806 5.17241C36.319 4.87404 35.6878 4.51256 35.0956 4.09307C34.8924 3.93772 34.7519 3.71436 34.6999 3.4639C34.648 3.21345 34.688 2.95272 34.8126 2.72934C34.9372 2.50596 35.1381 2.33486 35.3785 2.24752C35.6189 2.16017 35.8828 2.16243 36.1217 2.25373C36.781 2.55938 37.4119 2.92307 38.0067 3.3406C38.1843 3.51256 38.3241 3.71969 38.4172 3.9487Z" fill="white"/>
<path id="Vector_6" d="M59.7225 5.38369C59.4185 5.08725 58.9625 4.85161 58.8712 4.50958C58.8354 4.32078 58.8442 4.12624 58.897 3.94146C58.9498 3.75669 59.0451 3.58679 59.1753 3.44545C59.7685 2.9519 60.4387 2.55902 61.1591 2.2825C61.3615 2.24966 61.5688 2.26489 61.7642 2.32694C61.9596 2.389 62.1377 2.49613 62.284 2.63972C62.3971 2.79905 62.4676 2.98468 62.4889 3.17888C62.5101 3.37307 62.4815 3.56946 62.4056 3.7495C61.7672 4.57798 60.779 4.90484 59.7225 5.38369Z" fill="white"/>
<path id="Vector_7" d="M34.8905 10.2852C34.5512 10.3042 34.2112 10.3042 33.872 10.2852C33.5901 10.2582 33.3303 10.1207 33.1494 9.90283C32.9686 9.68493 32.8813 9.4043 32.9067 9.12225C32.9166 8.85141 33.0332 8.59554 33.2312 8.41042C33.4291 8.22529 33.6923 8.12599 33.9632 8.1342C34.5712 8.1342 35.1793 8.1342 35.7797 8.1342C35.9191 8.12705 36.0586 8.14756 36.19 8.1946C36.3214 8.24165 36.4422 8.31429 36.5454 8.40828C36.6486 8.50228 36.7321 8.61574 36.7912 8.74221C36.8502 8.86868 36.8836 9.00562 36.8895 9.14507C36.8977 9.29032 36.8766 9.43575 36.8276 9.57271C36.7785 9.70967 36.7025 9.83533 36.604 9.94236C36.5055 10.0494 36.3864 10.1356 36.254 10.1958C36.1216 10.2559 35.9784 10.289 35.833 10.2928C35.5213 10.2928 35.2021 10.2928 34.8905 10.2928V10.2852Z" fill="white"/>
<path id="Vector_8" d="M35.7335 16.3672C35.3307 15.9568 34.8747 15.6984 34.7759 15.3411C34.7423 15.1399 34.7557 14.9337 34.815 14.7386C34.8743 14.5434 34.978 14.3646 35.1179 14.2162C35.6479 13.7536 36.2621 13.3974 36.9269 13.1673C37.1363 13.1195 37.354 13.1214 37.5625 13.1729C37.7711 13.2243 37.9647 13.324 38.1278 13.4637C38.3482 13.6918 38.4318 14.4518 38.257 14.6039C37.4534 15.2437 36.6106 15.8326 35.7335 16.3672Z" fill="white"/>
</g>
</svg>
