<svg width="75" height="75" viewBox="0 0 75 75" fill="none" xmlns="http://www.w3.org/2000/svg">
<g id="Group 183">
<path id="Vector" d="M74.5891 29.9948C74.4976 30.7584 74.4223 31.5274 74.3148 32.2856C72.9436 42.0239 67.862 49.2456 59.3121 54.01C56.2055 55.675 52.8118 56.737 49.3102 57.1396C49.0249 57.1838 48.7338 57.1129 48.5009 56.9425C48.2679 56.7721 48.1123 56.516 48.068 56.2308C48.0238 55.9456 48.0947 55.6545 48.2652 55.4215C48.4356 55.1886 48.6916 55.0329 48.9768 54.9887C51.1277 54.4509 53.3647 54.1068 55.4296 53.3378C60.969 51.3012 65.6281 47.4024 68.6095 42.3089C71.2817 37.9401 72.5921 32.8744 72.3736 27.7578C72.0993 20.4662 69.2063 14.3144 63.9097 9.30814C63.8046 9.22679 63.6951 9.15143 63.5817 9.08233C63.5817 10.3299 63.5817 11.4806 63.5817 12.626C63.5817 12.8518 63.8236 13.0884 63.9957 13.282C67.0601 16.8647 68.9897 21.2778 69.5393 25.96C70.0889 30.6423 69.2337 35.3823 67.0823 39.5772C64.1409 45.2288 59.6562 49.2564 53.5637 51.2514C45.8472 53.7734 38.5609 52.6925 31.9253 47.9874C29.4891 46.3111 27.407 44.1714 25.7979 41.6904C24.1888 39.2094 23.0842 36.4357 22.5472 33.5277C20.8641 24.8057 23.3054 17.2613 29.8227 11.1849C32.7691 8.46713 36.3577 6.54245 40.2517 5.59153C44.1457 4.6406 48.2175 4.69454 52.0849 5.74834L52.9453 5.97422C52.9453 5.09771 52.9453 4.30727 52.9453 3.5168C52.9453 3.35548 52.6334 3.13498 52.4075 3.0812C48.8105 2.11256 45.0428 1.95827 41.3786 2.62953C32.8824 4.24273 26.5264 8.81883 22.4181 16.3901C19.5862 21.4863 18.6563 27.4225 19.794 33.1405C21.8804 44.0081 28.3977 50.9987 38.9803 54.2305C40.367 54.5715 41.773 54.8283 43.1908 54.9994C43.4758 55.0478 43.7716 55.064 44.0566 55.1231C44.2022 55.1362 44.3436 55.1788 44.4721 55.2484C44.6007 55.318 44.7137 55.4131 44.8043 55.5279C44.8949 55.6426 44.9611 55.7746 44.999 55.9158C45.0368 56.057 45.0455 56.2045 45.0244 56.3492C44.9731 56.6397 44.8096 56.8985 44.5692 57.0695C44.3287 57.2405 44.0306 57.3101 43.7393 57.2633C41.1708 57.0522 38.6404 56.51 36.211 55.6501C32.7534 54.4184 29.5643 52.5345 26.8168 50.1007C26.677 49.9716 26.5211 49.8587 26.3705 49.735L24.2196 51.972C24.5798 52.3054 25.0315 52.6764 25.4295 53.0958C25.7111 53.3571 25.9357 53.6736 26.0893 54.0257C26.243 54.3778 26.3223 54.7578 26.3223 55.1419C26.3223 55.5261 26.243 55.906 26.0893 56.2581C25.9357 56.6102 25.7111 56.9268 25.4295 57.188C24.354 58.3065 23.2409 59.3873 22.1385 60.4789L9.73297 72.8468C7.58204 74.9977 5.31284 74.9977 3.18879 72.8468C2.4637 72.2008 1.78785 71.5016 1.16691 70.755C0.713211 70.0262 0.322798 69.2598 0 68.4643V67.3028C0.42481 66.5016 0.699083 65.5498 1.30672 64.9314C6.5801 59.5827 11.8929 54.2663 17.2451 48.9822C17.506 48.699 17.8227 48.4729 18.1754 48.3183C18.528 48.1637 18.9089 48.0839 19.2939 48.0839C19.6789 48.0839 20.0598 48.1637 20.4124 48.3183C20.7651 48.4729 21.0818 48.699 21.3426 48.9822C21.7567 49.3801 22.1009 49.8533 22.644 50.4825C23.0903 49.9447 23.3699 49.5306 23.7194 49.1757C24.069 48.8208 24.44 48.4821 24.7949 48.1648C24.7668 48.1069 24.7345 48.0512 24.6981 47.9981C24.4992 47.7562 24.3002 47.5088 24.0959 47.2668C20.082 42.6675 17.6835 36.8809 17.2666 30.7906C16.8315 25.7656 17.7956 20.7182 20.0521 16.2073C24.1228 8.08753 30.5809 2.90915 39.4105 0.752841C40.8624 0.397936 42.3627 0.215094 43.8415 0H47.7723C49.5414 0.306508 51.3106 0.618368 53.0851 0.914121C53.2198 0.927777 53.355 0.893541 53.4669 0.817366C53.8595 0.553876 54.2358 0.279622 54.6176 0H61.8985C62.4743 0.229444 62.9531 0.650759 63.2539 1.19264C63.5547 1.73452 63.6592 2.36369 63.5494 2.97368C63.4849 3.71576 63.5494 4.47393 63.5494 5.22138C63.5225 5.49156 63.5681 5.76402 63.6815 6.01071C63.7949 6.25741 63.9721 6.4694 64.1947 6.62485C69.1784 10.6741 72.6124 16.3189 73.9169 22.6064C74.218 24.0152 74.3686 25.4617 74.5891 26.9082V29.9948ZM55.2306 2.2746V48.2239C57.3161 47.2256 59.2322 45.9065 60.9091 44.3147C61.0725 44.1765 61.2023 44.0031 61.2889 43.8075C61.3756 43.6119 61.4167 43.3992 61.4092 43.1854C61.4092 39.3836 61.4092 35.5818 61.4092 31.7801C61.4023 31.4668 61.4367 31.1541 61.5114 30.8498C61.5966 30.6383 61.7468 30.4593 61.9403 30.3387C62.1338 30.2181 62.3606 30.1621 62.588 30.1789C62.8154 30.1956 63.0317 30.2843 63.2055 30.4319C63.3792 30.5796 63.5015 30.7786 63.5547 31.0004C63.589 31.2642 63.6016 31.5303 63.5924 31.7962V41.0237C68.8031 34.3451 68.8891 23.2785 63.5924 16.4278V25.4994C63.6016 25.7652 63.589 26.0314 63.5547 26.2952C63.4975 26.5167 63.3712 26.7142 63.1941 26.859C63.017 27.0038 62.7983 27.0883 62.5699 27.1003C62.3414 27.1123 62.115 27.0511 61.9237 26.9257C61.7324 26.8002 61.5861 26.617 61.506 26.4027C61.4332 26.0745 61.4006 25.7386 61.4092 25.4025C61.4092 17.989 61.4092 10.5772 61.4092 3.16726V2.2746H55.2306ZM52.6495 8.32949C48.2766 6.80889 43.5265 6.75874 39.1224 8.18666C34.7183 9.61457 30.9014 12.4423 28.2526 16.2395C22.4397 24.4884 23.5313 34.3827 27.7148 40.2494V39.4535C27.7148 35.4385 27.7148 31.4198 27.7148 27.3975C27.7148 25.7467 28.5698 24.8809 30.2152 24.8648C31.8607 24.8487 33.6084 24.8648 35.3076 24.8648C35.5657 24.8648 35.8453 24.8648 36.1465 24.8272V24.0474C36.1465 22.3052 36.1465 20.5629 36.1465 18.8207C36.1382 18.5273 36.1902 18.2353 36.299 17.9628C36.4078 17.6902 36.5713 17.4427 36.7793 17.2357C36.9873 17.0287 37.2355 16.8665 37.5086 16.759C37.7817 16.6514 38.074 16.601 38.3673 16.6106C38.905 16.6106 39.4804 16.6106 40.0396 16.6106H44.5566V15.7556C44.5566 14.1424 44.5566 12.5292 44.5566 10.916C44.5566 9.30282 45.4385 8.37248 47.1216 8.36711L52.6495 8.32949ZM46.7721 50.5255C48.6972 50.1275 50.4878 49.7404 52.2839 49.3908C52.8539 49.2833 52.9883 48.9983 52.9883 48.4444C52.9883 36.0515 52.9883 23.6549 52.9883 11.2547C52.9883 11.0235 52.9883 10.7923 52.9453 10.5611H46.7882L46.7721 50.5255ZM44.5029 50.2781V18.8261H38.3458C38.3458 19.1057 38.3135 19.3638 38.3135 19.5789C38.3135 29.1398 38.3135 38.7025 38.3135 48.267C38.2918 48.3843 38.2918 48.5046 38.3135 48.6219C38.3942 48.794 38.4964 49.0306 38.6469 49.0844C40.5184 49.7803 42.4867 50.1812 44.4813 50.2727L44.5029 50.2781ZM29.8818 27.0857V40.1633C29.8818 41.2011 29.5754 42.4165 30.0056 43.2392C30.5433 44.2501 31.6187 45.0029 32.5813 45.7396C33.6567 46.5731 34.8398 47.2668 36.0873 48.0949V27.0857H29.8818ZM16.3256 63.3773C14.5511 61.6082 12.8787 59.9358 11.1795 58.2473C11.1795 58.2473 11.1795 58.2473 11.1204 58.2742C8.37255 61.0113 5.61394 63.7376 2.88763 66.4908C2.67681 66.6775 2.50803 66.9068 2.39243 67.1636C2.27683 67.4203 2.21704 67.6988 2.21704 67.9803C2.21704 68.2619 2.27683 68.5403 2.39243 68.7971C2.50803 69.0538 2.67681 69.2831 2.88763 69.4698C3.55442 70.1742 4.25344 70.8518 4.94174 71.5294C5.97419 72.5403 7.01203 72.5349 8.04448 71.5294L14.6371 64.9583C15.2071 64.3722 15.804 63.8451 16.3041 63.3773H16.3256ZM21.1007 58.5377C22.0256 57.602 22.9666 56.661 23.8969 55.7146C23.9827 55.645 24.0513 55.5566 24.0973 55.456C24.1432 55.3555 24.1652 55.2457 24.1615 55.1353C24.1579 55.0248 24.1287 54.9167 24.0763 54.8194C24.0238 54.7221 23.9495 54.6384 23.8593 54.5746L19.8962 50.6277C19.83 50.5397 19.7443 50.4683 19.6459 50.4192C19.5474 50.37 19.4389 50.3444 19.3288 50.3444C19.2188 50.3444 19.1103 50.37 19.0118 50.4192C18.9134 50.4683 18.8277 50.5397 18.7615 50.6277C17.8205 51.5633 16.8687 52.4935 15.9546 53.4023L21.1007 58.5377ZM12.9379 56.5481L17.9818 61.5921L19.2563 60.2584L14.2553 55.2414L12.9379 56.5481Z" fill="white"/>
</g>
</svg>
