<svg width="54" height="75" viewBox="0 0 54 75" fill="none" xmlns="http://www.w3.org/2000/svg">
<g id="Group 182">
<path id="Vector" d="M48.0942 0.0141375C48.4544 0.127127 48.8357 0.211855 49.1888 0.353092C50.2958 0.738927 51.2616 1.44783 51.9615 2.3882C52.6614 3.32856 53.0632 4.45716 53.1152 5.62826C53.1152 5.89661 53.1152 6.16496 53.1152 6.42625C53.1152 26.9762 53.1152 47.5238 53.1152 68.069C53.1152 70.7384 52.0559 72.7793 49.5842 73.9021C48.8111 74.2409 47.9778 74.421 47.1338 74.4317C44.5915 74.4953 42.0422 74.4317 39.4999 74.4317C38.6243 74.4317 38.1512 74.0504 38.1441 73.3654C38.137 72.6804 38.6102 72.2567 39.5565 72.2567H46.6818C49.5066 72.2567 50.9613 70.7878 50.9613 67.9419V6.44746C50.9613 3.6651 49.4784 2.21036 46.7243 2.21036H6.47179C3.69649 2.21036 2.23469 3.68628 2.23469 6.44746V50.4992C2.23469 50.7887 2.23469 51.0853 2.23469 51.3748C2.2205 51.6381 2.10919 51.8868 1.92237 52.0729C1.73556 52.259 1.48644 52.3693 1.22309 52.3825C0.959734 52.3957 0.700831 52.3107 0.496388 52.1442C0.291945 51.9777 0.156524 51.7414 0.116142 51.4808C0.0736886 51.2171 0.0594432 50.9495 0.0737295 50.6828C0.0737295 35.9518 0.0737295 21.2209 0.0737295 6.48987C0.0737295 3.02957 1.66264 0.974523 5.01701 0.0776698C5.05938 0.0776698 5.09472 0.0282473 5.13003 0L48.0942 0.0141375Z" fill="white"/>
<path id="Vector_2" d="M26.3514 26.2268C21.507 26.2268 16.6626 26.2268 11.8112 26.2268C9.49487 26.2268 7.77175 25.0122 7.18562 22.9784C7.0464 22.4651 6.97756 21.9354 6.98088 21.4036C6.98088 18.1081 6.98088 14.8126 6.98088 11.517C6.94267 10.884 7.03786 10.25 7.26036 9.65616C7.48285 9.0623 7.82764 8.52182 8.27239 8.06974C8.71714 7.61767 9.25193 7.2641 9.84208 7.03193C10.4322 6.79977 11.0646 6.69417 11.6981 6.72203C17.7289 6.72203 23.7668 6.72203 29.7976 6.72203C30.6874 6.72203 31.21 7.17398 31.21 7.85898C31.21 8.54397 30.6874 8.88998 29.7976 8.89704H12.2067C9.96806 8.89704 9.16296 9.70914 9.16296 11.976V21.2765C9.16296 23.1337 10.0669 24.0447 11.9312 24.0447H40.9342C42.7561 24.0447 43.66 23.1479 43.66 21.3259C43.66 18.0775 43.66 14.8361 43.66 11.5876C43.66 9.81512 42.7491 8.90411 40.9695 8.89704H35.1576C34.8963 8.89704 34.522 8.93948 34.3878 8.79119C34.0687 8.49657 33.8512 8.10838 33.7664 7.68243C33.7673 7.54673 33.7971 7.41274 33.8535 7.28934C33.91 7.16594 33.9919 7.05591 34.094 6.9665C34.1961 6.87709 34.316 6.81036 34.4457 6.77065C34.5755 6.73094 34.7122 6.7192 34.8469 6.73617C37.149 6.73617 39.4583 6.65139 41.7533 6.79263C42.845 6.83998 43.8761 7.30719 44.6314 8.09673C45.3868 8.88626 45.8079 9.93708 45.8068 11.0297C45.8845 14.6383 45.8916 18.247 45.8068 21.8556C45.7503 24.4331 43.8013 26.1703 41.1248 26.2056C39.1616 26.2056 37.1985 26.2056 35.2353 26.2056L26.3514 26.2268Z" fill="white"/>
<path id="Vector_3" d="M15.9281 47.7155C14.5157 47.7155 13.1034 47.7155 11.6416 47.7155C11.0221 47.7373 10.4048 47.6311 9.8282 47.4038C9.25156 47.1765 8.72794 46.8328 8.28998 46.3942C7.85202 45.9556 7.50914 45.4314 7.28268 44.8544C7.05622 44.2774 6.95104 43.66 6.97373 43.0406C6.97373 40.1782 6.97373 37.3205 6.97373 34.4675C6.95407 33.8477 7.06176 33.2303 7.29018 32.6538C7.51861 32.0772 7.86294 31.5537 8.30179 31.1156C8.74063 30.6774 9.26467 30.3338 9.84156 30.1063C10.4185 29.8787 11.0359 29.772 11.6557 29.7926C14.5134 29.7926 17.3711 29.7926 20.2288 29.7926C20.8488 29.7681 21.4672 29.8714 22.0456 30.0959C22.624 30.3205 23.1501 30.6616 23.5911 31.098C24.0322 31.5344 24.3788 32.0568 24.6094 32.6328C24.8401 33.2088 24.9498 33.8261 24.9319 34.4463C24.9602 37.3275 24.9602 40.2088 24.9319 43.09C24.9486 43.7037 24.8397 44.3144 24.6118 44.8846C24.3839 45.4547 24.0419 45.9722 23.6067 46.4054C23.1716 46.8386 22.6525 47.1783 22.0813 47.4035C21.5102 47.6288 20.899 47.735 20.2853 47.7155C18.8305 47.7296 17.3828 47.7155 15.9281 47.7155ZM15.9281 45.5334C17.3828 45.5334 18.8305 45.5334 20.2853 45.5334C20.6141 45.5578 20.9443 45.5121 21.254 45.3991C21.5638 45.2861 21.846 45.1085 22.0818 44.878C22.3176 44.6476 22.5016 44.3696 22.6217 44.0625C22.7417 43.7555 22.7951 43.4263 22.7781 43.0971C22.7781 40.2158 22.7781 37.3346 22.7781 34.4534C22.7973 34.118 22.7444 33.7823 22.623 33.469C22.5016 33.1557 22.3146 32.8722 22.0743 32.6373C21.8341 32.4024 21.5464 32.2218 21.2305 32.1075C20.9146 31.9932 20.5778 31.9479 20.2429 31.9747C17.4182 31.9747 14.5935 31.9747 11.7687 31.9747C11.4281 31.9441 11.0848 31.9879 10.7627 32.1032C10.4407 32.2185 10.1477 32.4024 9.9038 32.6422C9.65994 32.8821 9.47116 33.1721 9.35055 33.4921C9.22993 33.8122 9.18037 34.1546 9.20529 34.4957C9.20529 37.3204 9.20529 40.1452 9.20529 42.9699C9.17408 43.3103 9.21793 43.6535 9.33374 43.9751C9.44954 44.2968 9.63447 44.5892 9.87553 44.8316C10.1166 45.074 10.4079 45.2606 10.7289 45.3782C11.0499 45.4958 11.3928 45.5415 11.7334 45.5122C13.0893 45.5405 14.4663 45.5334 15.8787 45.5334H15.9281Z" fill="white"/>
<path id="Vector_4" d="M15.9139 68.621C14.4591 68.621 13.0043 68.621 11.5496 68.621C10.9546 68.6323 10.3632 68.5248 9.81018 68.3048C9.25716 68.0849 8.75361 67.7569 8.32885 67.34C7.90408 66.9231 7.56666 66.4258 7.33638 65.877C7.1061 65.3282 6.98758 64.739 6.98768 64.1438C6.93119 61.1637 6.93119 58.186 6.98768 55.2106C6.98457 54.6085 7.10274 54.0119 7.33517 53.4564C7.5676 52.901 7.90947 52.398 8.34048 51.9775C8.7715 51.557 9.28283 51.2277 9.84388 51.0091C10.4049 50.7905 11.0042 50.6871 11.6061 50.7051C14.5155 50.7051 17.4204 50.7051 20.3204 50.7051C20.9223 50.6881 21.5214 50.7924 22.0821 51.0118C22.6428 51.2313 23.1536 51.5614 23.5839 51.9825C24.0143 52.4036 24.3554 52.9072 24.587 53.463C24.8186 54.0188 24.9358 54.6156 24.9317 55.2177C24.9835 58.1695 24.9835 61.1237 24.9317 64.0802C24.9388 64.6881 24.8225 65.2911 24.5897 65.8526C24.3569 66.4142 24.0124 66.9227 23.5773 67.3473C23.1422 67.7718 22.6254 68.1036 22.0583 68.3226C21.4912 68.5415 20.8855 68.643 20.278 68.621C18.8162 68.6351 17.3615 68.621 15.9139 68.621ZM15.9845 52.8872H11.6414C11.313 52.8679 10.9841 52.9181 10.6764 53.0345C10.3687 53.151 10.0892 53.3311 9.85586 53.5631C9.62256 53.795 9.44083 54.0737 9.32261 54.3807C9.20438 54.6877 9.1523 55.0162 9.16977 55.3447C9.16977 58.226 9.16977 61.1072 9.16977 63.9884C9.15106 64.3169 9.20231 64.6456 9.32019 64.9529C9.43808 65.2601 9.61995 65.5387 9.85362 65.7704C10.0873 66.0021 10.3675 66.1814 10.6757 66.2967C10.9839 66.4119 11.3131 66.4605 11.6414 66.4389C14.5273 66.4389 17.4109 66.4389 20.2922 66.4389C20.6211 66.4606 20.9509 66.4119 21.2596 66.2963C21.5684 66.1806 21.849 66.0005 22.0828 65.7681C22.3166 65.5356 22.4982 65.2561 22.6156 64.948C22.733 64.64 22.7835 64.3104 22.7638 63.9813C22.7638 61.1001 22.7638 58.2189 22.7638 55.3377C22.7815 55.0088 22.7292 54.6799 22.6105 54.3727C22.4918 54.0655 22.3093 53.7869 22.0751 53.5554C21.8409 53.3238 21.5603 53.1446 21.2518 53.0295C20.9432 52.9143 20.6137 52.8658 20.2851 52.8872C18.8445 52.8731 17.418 52.8872 15.9845 52.8872Z" fill="white"/>
<path id="Vector_5" d="M36.8315 47.7142C35.4191 47.7142 33.9714 47.7142 32.5378 47.7142C31.9177 47.7353 31.3 47.6278 30.7234 47.3986C30.1468 47.1694 29.6238 46.8234 29.1874 46.3824C28.751 45.9413 28.4106 45.4148 28.1876 44.8358C27.9645 44.2568 27.8636 43.638 27.8912 43.0181C27.8912 40.1934 27.8912 37.3568 27.8912 34.5086C27.8642 33.8825 27.9676 33.2577 28.1947 32.6736C28.4218 32.0896 28.7677 31.559 29.2104 31.1156C29.6532 30.6721 30.1832 30.3255 30.7669 30.0975C31.3507 29.8695 31.9754 29.7653 32.6015 29.7913C35.4262 29.7913 38.2509 29.7913 41.0757 29.7913C41.6904 29.759 42.3052 29.8541 42.8815 30.0705C43.4578 30.2869 43.9831 30.6201 44.4247 31.049C44.8662 31.478 45.2144 31.9935 45.4474 32.5633C45.6804 33.1331 45.7932 33.7449 45.7788 34.3603C45.8353 37.2909 45.8282 40.2216 45.7788 43.1522C45.7937 43.7608 45.6838 44.366 45.4558 44.9305C45.2278 45.4949 44.8865 46.0066 44.4531 46.434C44.0197 46.8615 43.5033 47.1956 42.9358 47.4158C42.3682 47.636 41.7616 47.7376 41.1533 47.7142C39.741 47.7284 38.2862 47.7142 36.8315 47.7142ZM36.8315 45.5321C38.2439 45.5321 39.6562 45.5321 41.118 45.5321C41.4461 45.5631 41.7771 45.523 42.0883 45.4142C42.3995 45.3055 42.6835 45.1308 42.9209 44.9021C43.1583 44.6734 43.3435 44.3962 43.4638 44.0893C43.5841 43.7824 43.6367 43.4531 43.6179 43.124C43.6461 40.224 43.6461 37.3192 43.6179 34.4097C43.6371 34.0805 43.5854 33.751 43.4666 33.4434C43.3478 33.1358 43.1645 32.8572 42.929 32.6264C42.6934 32.3956 42.4113 32.2178 42.1013 32.1052C41.7914 31.9926 41.4609 31.9476 41.1321 31.9734C38.2744 31.9734 35.4167 31.9734 32.559 31.9734C32.2249 31.9494 31.8895 31.9974 31.5755 32.114C31.2614 32.2306 30.976 32.4132 30.7384 32.6494C30.5009 32.8856 30.3166 33.17 30.1983 33.4834C30.0799 33.7968 30.03 34.1319 30.0521 34.4662C30.0521 37.3192 30.0521 40.1746 30.0521 43.0322C30.0256 43.3667 30.0719 43.7028 30.1877 44.0176C30.3036 44.3325 30.4861 44.6184 30.723 44.856C30.9599 45.0935 31.2454 45.277 31.5599 45.3937C31.8744 45.5104 32.2104 45.5576 32.5449 45.5321C33.9926 45.5462 35.4261 45.5321 36.8526 45.5321H36.8315Z" fill="white"/>
<path id="Vector_6" d="M36.8302 68.6208C35.3826 68.6208 33.9278 68.6208 32.4731 68.6208C31.8659 68.6315 31.2628 68.5193 30.7001 68.2909C30.1374 68.0626 29.6266 67.7228 29.1985 67.2921C28.7704 66.8614 28.4339 66.3485 28.209 65.7844C27.9841 65.2203 27.8756 64.6166 27.8899 64.0094C27.8899 61.1094 27.8899 58.2046 27.8899 55.2952C27.8774 54.6877 27.988 54.084 28.2151 53.5205C28.4422 52.957 28.7812 52.4453 29.2114 52.0163C29.6417 51.5874 30.1544 51.25 30.7186 51.0246C31.2828 50.7992 31.8869 50.6905 32.4943 50.705C35.4249 50.705 38.3485 50.705 41.2791 50.705C41.863 50.688 42.4445 50.7877 42.9893 50.9982C43.5342 51.2087 44.0316 51.5258 44.4525 51.9309C44.8733 52.336 45.2092 52.8209 45.4404 53.3573C45.6715 53.8937 45.7933 54.4709 45.7987 55.055C45.8764 58.1269 45.8764 61.2059 45.7987 64.2354C45.7887 64.819 45.6631 65.3949 45.4294 65.9297C45.1956 66.4646 44.8582 66.9477 44.4367 67.3515C44.0152 67.7553 43.5179 68.0716 42.9736 68.2821C42.4292 68.4927 41.8485 68.5934 41.265 68.5784C39.7891 68.6349 38.3132 68.6208 36.8302 68.6208ZM36.8302 52.8871H32.5437C32.2095 52.8618 31.8739 52.9089 31.5596 53.0252C31.2454 53.1414 30.9598 53.324 30.7225 53.5607C30.4852 53.7973 30.3018 54.0823 30.1847 54.3962C30.0676 54.7102 30.0195 55.0457 30.0438 55.3799C30.0438 58.2329 30.0438 61.0882 30.0438 63.9459C30.0195 64.2801 30.0676 64.6156 30.1847 64.9296C30.3018 65.2435 30.4852 65.5285 30.7225 65.7651C30.9598 66.0017 31.2454 66.1844 31.5596 66.3007C31.8739 66.4169 32.2095 66.464 32.5437 66.4388H41.1167C41.4453 66.4678 41.7763 66.4255 42.0871 66.3151C42.398 66.2046 42.6813 66.0284 42.9179 65.7985C43.1545 65.5686 43.3388 65.2905 43.4581 64.9829C43.5775 64.6754 43.6291 64.3458 43.6096 64.0165C43.6378 61.1117 43.6378 58.207 43.6096 55.3022C43.6293 54.9732 43.5776 54.6438 43.4582 54.3366C43.3388 54.0294 43.1544 53.7516 42.9177 53.5223C42.681 53.2929 42.3975 53.1174 42.0866 53.0077C41.7758 52.8981 41.445 52.857 41.1167 52.8871C39.7185 52.8729 38.2849 52.8871 36.8584 52.8871H36.8302Z" fill="white"/>
<path id="Vector_7" d="M19.9528 74.4184H6.28112C2.51716 74.4184 0.0102004 71.9114 0.00313859 68.1263C-0.00392324 64.3411 0.00313859 60.3583 0.00313859 56.4955C-0.00827466 56.2291 0.0202863 55.9625 0.0878772 55.7045C0.142203 55.4647 0.2852 55.2543 0.488209 55.1154C0.691218 54.9766 0.939173 54.9197 1.18241 54.956C1.42926 54.9588 1.66619 55.0537 1.84653 55.2223C2.02686 55.3909 2.13757 55.6209 2.15695 55.867C2.17024 56.1022 2.17024 56.3379 2.15695 56.5731V67.9851C2.15695 70.7251 3.65405 72.2222 6.39405 72.2222H33.8717C34.0904 72.2081 34.3098 72.2081 34.5285 72.2222C34.815 72.2222 35.0898 72.336 35.2924 72.5386C35.495 72.7413 35.6089 73.0161 35.6089 73.3027C35.6089 73.5892 35.495 73.864 35.2924 74.0666C35.0898 74.2692 34.815 74.3831 34.5285 74.3831C34.3121 74.3974 34.0951 74.3974 33.8787 74.3831L19.9528 74.4184Z" fill="white"/>
<path id="Vector_8" d="M36.09 21.547C34.9319 21.547 33.7666 21.547 32.6085 21.547C31.7823 21.547 31.3516 21.1445 31.3516 20.4666C31.3516 19.7886 31.8035 19.3862 32.6156 19.3791C34.9695 19.3791 37.3235 19.3791 39.6774 19.3791C39.8341 19.3604 39.9929 19.3745 40.1439 19.4206C40.2948 19.4666 40.4345 19.5436 40.554 19.6465C40.6736 19.7495 40.7704 19.8762 40.8383 20.0186C40.9062 20.161 40.9438 20.3159 40.9486 20.4736C40.9486 21.1163 40.4613 21.54 39.6634 21.547C38.477 21.5541 37.2764 21.547 36.09 21.547Z" fill="white"/>
<path id="Vector_9" d="M17.044 39.8357C17.044 40.6196 17.044 41.3116 17.044 42.0108C17.044 42.7099 16.5708 43.2819 15.9352 43.2678C15.7832 43.26 15.6344 43.2213 15.4977 43.1542C15.3611 43.087 15.2395 42.9928 15.1404 42.8772C15.0414 42.7616 14.9669 42.6271 14.9214 42.4818C14.8759 42.3365 14.8604 42.1834 14.876 42.032C14.876 41.3258 14.876 40.6196 14.876 39.8357C14.1203 39.8357 13.4636 39.8357 12.7574 39.8357C12.0512 39.8357 11.4863 39.412 11.4863 38.7623C11.4863 38.1126 11.9665 37.6818 12.7574 37.6677C13.4636 37.6677 14.1062 37.6677 14.876 37.6677C14.876 36.9615 14.876 36.2554 14.876 35.6199C14.876 34.7371 15.2644 34.2852 15.9635 34.2852C16.6626 34.2852 17.0369 34.723 17.0511 35.6128C17.0511 36.2625 17.0511 36.9121 17.0511 37.6677H19.106C19.9534 37.6677 20.4548 38.0844 20.4619 38.7553C20.469 39.4261 19.9746 39.8358 19.1343 39.8428L17.044 39.8357Z" fill="white"/>
<path id="Vector_10" d="M17.4046 59.681C18.0119 60.2389 18.5415 60.705 19.0288 61.2064C19.1537 61.3029 19.2562 61.4253 19.3294 61.5651C19.4025 61.705 19.4446 61.859 19.4527 62.0166C19.4607 62.1742 19.4346 62.3318 19.376 62.4784C19.3175 62.625 19.2279 62.7571 19.1135 62.8659C19.0029 62.9717 18.8711 63.0531 18.7269 63.1045C18.5827 63.1559 18.4292 63.1762 18.2766 63.1642C18.1239 63.1522 17.9754 63.1082 17.841 63.0348C17.7066 62.9615 17.5892 62.8606 17.4964 62.7387C17.0021 62.2515 16.5431 61.7219 15.9781 61.1075C15.392 61.7219 14.9259 62.2374 14.4315 62.7247C14.3365 62.8516 14.2152 62.9565 14.0759 63.0323C13.9365 63.108 13.7825 63.1528 13.6242 63.1635C13.466 63.1743 13.3073 63.1507 13.159 63.0945C13.0107 63.0382 12.8763 62.9506 12.7649 62.8376C12.6577 62.7222 12.5759 62.5857 12.5245 62.4368C12.4732 62.288 12.4536 62.13 12.4669 61.9731C12.4802 61.8161 12.5261 61.6637 12.6018 61.5256C12.6774 61.3875 12.7811 61.2667 12.9062 61.171C13.1463 60.9239 13.3794 60.6838 13.6124 60.4648C13.8455 60.2459 14.1279 60.0199 14.5304 59.6739C13.9302 59.1231 13.4076 58.6782 12.9204 58.1909C12.7863 58.0962 12.6746 57.9732 12.5931 57.8307C12.5117 57.6882 12.4626 57.5295 12.4491 57.3659C12.4356 57.2023 12.4582 57.0377 12.5152 56.8838C12.5722 56.7298 12.6623 56.5902 12.7791 56.4749C13.2593 56.0229 13.8666 56.0724 14.4457 56.6514C14.9259 57.1246 15.3708 57.6331 15.9217 58.2263C16.4937 57.626 16.9668 57.1105 17.4611 56.6232C17.5556 56.4958 17.6765 56.3902 17.8156 56.3139C17.9546 56.2375 18.1086 56.192 18.2668 56.1806C18.4251 56.1692 18.5839 56.1922 18.7325 56.2478C18.8811 56.3035 19.0159 56.3906 19.1277 56.5032C19.2369 56.6175 19.3207 56.7537 19.3733 56.9029C19.4259 57.052 19.4462 57.2107 19.4328 57.3683C19.4195 57.5259 19.3728 57.6788 19.2959 57.817C19.2189 57.9552 19.1134 58.0754 18.9865 58.1697C18.5274 58.6288 17.9978 59.0949 17.4046 59.681Z" fill="white"/>
<path id="Vector_11" d="M36.8241 39.8341C35.7577 39.8341 34.7055 39.8341 33.6321 39.8341C32.82 39.8341 32.368 39.4315 32.3751 38.7607C32.3821 38.0898 32.8341 37.6661 33.6321 37.6661C35.7883 37.6661 37.9422 37.6661 40.0937 37.6661C40.2511 37.6452 40.4111 37.6577 40.5633 37.7029C40.7156 37.748 40.8566 37.8247 40.9772 37.9279C41.0978 38.0312 41.1953 38.1588 41.2633 38.3022C41.3313 38.4457 41.3683 38.6019 41.3719 38.7607C41.3719 39.4104 40.8776 39.827 40.0937 39.8341C39.0062 39.8411 37.9116 39.8341 36.8241 39.8341Z" fill="white"/>
<path id="Vector_12" d="M36.8516 56.6235C37.9179 56.6235 38.9701 56.6235 40.0435 56.6235C40.8768 56.6235 41.3923 57.0754 41.3712 57.7321C41.35 58.3889 40.8627 58.7914 40.0647 58.7985H33.7091C32.8405 58.7985 32.3885 58.3819 32.4027 57.6827C32.4168 56.9836 32.8475 56.6376 33.6879 56.6235C34.726 56.6093 35.7852 56.6235 36.8516 56.6235Z" fill="white"/>
<path id="Vector_13" d="M36.8382 62.6993C35.7719 62.6993 34.7196 62.6993 33.6462 62.6993C32.813 62.6993 32.3821 62.3038 32.3751 61.6259C32.368 60.9479 32.8059 60.5383 33.618 60.5312C35.7718 60.5312 37.9257 60.5312 40.0796 60.5312C40.8705 60.5312 41.3648 60.9691 41.3719 61.6047C41.3789 62.2402 40.8917 62.6852 40.1078 62.6993C39.0133 62.7134 37.9257 62.6993 36.8382 62.6993Z" fill="white"/>
</g>
</svg>
