<svg width="84" height="75" viewBox="0 0 84 75" fill="none" xmlns="http://www.w3.org/2000/svg">
<g id="Group 187">
<path id="Vector" d="M0.0148902 38.8569C0.10915 38.6089 0.208368 38.3608 0.297667 38.1128C0.624436 37.116 1.25117 36.2446 2.09214 35.6176C2.93311 34.9907 3.94724 34.6389 4.9958 34.6103C6.48412 34.5656 7.97244 34.6103 9.46076 34.6103H10.4034C10.4034 32.8193 10.4034 31.1376 10.4034 29.421C10.3934 27.4409 11.0664 25.5179 12.309 23.9762C13.5516 22.4344 15.2878 21.3683 17.2248 20.9574C18.0218 20.7987 18.8332 20.7239 19.6458 20.7342C26.0059 20.7342 32.366 20.7342 38.7261 20.7342H39.7679V13.6002C35.5857 12.2061 34.1718 8.52004 34.8069 5.46898C35.1439 3.91965 36.001 2.53226 37.2356 1.53737C38.4702 0.542485 40.008 0 41.5936 0C43.1792 0 44.717 0.542485 45.9516 1.53737C47.1862 2.53226 48.0433 3.91965 48.3803 5.46898C48.9707 8.35136 47.7453 12.1267 43.3399 13.6249V20.0098C43.3399 20.2182 43.3647 20.4266 43.3796 20.7292H44.3718C50.8212 20.7292 57.3102 20.7292 63.7795 20.7292C67.8674 20.7292 71.1467 23.0163 72.3125 26.7222C72.5933 27.7087 72.7434 28.7278 72.759 29.7534C72.8285 31.3409 72.759 32.9335 72.759 34.6153C74.4557 34.6153 76.073 34.5458 77.6854 34.6153C78.5978 34.6346 79.4977 34.8317 80.3346 35.1957C81.1938 35.5879 81.9182 36.2251 82.4169 37.0274C82.9155 37.8296 83.1662 38.7612 83.1376 39.7053C83.1706 44.931 83.1706 50.1566 83.1376 55.3823C83.1376 58.3292 80.8555 60.517 77.8094 60.5666C76.1623 60.5963 74.5152 60.5666 72.7541 60.5666C72.7541 61.4199 72.7541 62.2186 72.7541 63.0471C72.7958 64.3715 72.7527 65.6971 72.6251 67.016C72.3547 69.1087 71.3189 71.0273 69.7176 72.4014C68.1162 73.7756 66.0627 74.5081 63.9531 74.4576C56.614 74.4576 49.2783 74.4576 41.9458 74.4576C34.3653 74.4576 26.7848 74.4576 19.2043 74.4576C15.0072 74.4576 11.5196 71.7786 10.6564 67.7601C10.3438 66.3016 10.453 64.7488 10.3934 63.2406C10.3637 62.4071 10.3934 61.5688 10.3934 60.6162H8.27011C7.27789 60.6162 6.32041 60.6162 5.34804 60.6162C4.14548 60.6452 2.96989 60.2575 2.02051 59.5188C1.07114 58.7801 0.40639 57.7358 0.138917 56.563C0.100668 56.4634 0.0541975 56.3672 0 56.2753L0.0148902 38.8569ZM41.6482 24.197C34.2628 24.197 26.8758 24.197 19.4871 24.197C16.0143 24.197 13.8612 26.3402 13.8612 29.8129C13.8612 41.6401 13.8612 53.4656 13.8612 65.2895C13.8612 68.792 16.0342 70.965 19.5317 70.97H63.6158C67.1629 70.97 69.321 68.797 69.326 65.2399C69.326 53.4723 69.2912 41.6996 69.326 29.927C69.326 26.4791 66.8901 24.1126 63.5513 24.1623C56.2635 24.2714 48.9558 24.197 41.6482 24.197ZM10.3538 57.0542V38.0979C10.2881 38.0726 10.2199 38.0543 10.1503 38.0434H5.76972C4.06312 38.0434 3.46779 38.6288 3.46779 40.3205C3.46779 44.2662 3.46779 48.2135 3.46779 52.1625C3.46779 53.1895 3.46779 54.2164 3.46779 55.2434C3.46779 56.2703 4.07304 57.0194 4.95611 57.0442C6.75698 57.1038 8.53304 57.0542 10.3538 57.0542ZM72.8235 38.0434V57.079H77.472C79.134 57.079 79.7194 56.4985 79.7194 54.8366C79.7194 51.1985 79.7194 47.5752 79.7194 43.9669C79.7194 42.6423 79.7194 41.3176 79.7194 39.998C79.7194 38.8421 79.0943 38.088 78.0723 38.0582C76.3409 38.0185 74.6145 38.0532 72.8235 38.0532V38.0434ZM45.0415 6.85805C45.0435 6.17675 44.8435 5.51018 44.4669 4.94241C44.0904 4.37465 43.554 3.93119 42.9256 3.66799C42.2972 3.40479 41.6049 3.33362 40.9361 3.46354C40.2673 3.59346 39.652 3.91866 39.1678 4.39798C38.6837 4.87731 38.3523 5.4893 38.2157 6.15676C38.0791 6.82422 38.1432 7.51719 38.4001 8.14821C38.657 8.77923 39.095 9.32003 39.659 9.7023C40.2229 10.0846 40.8875 10.2912 41.5688 10.2961C42.0232 10.3047 42.4748 10.2222 42.8968 10.0535C43.3188 9.88477 43.7028 9.63322 44.026 9.31369C44.3492 8.99416 44.6051 8.61314 44.7787 8.19309C44.9523 7.77304 45.04 7.32247 45.0366 6.86798L45.0415 6.85805Z" fill="white"/>
<path id="Vector_2" d="M31.1956 34.6017C31.877 34.6017 32.5517 34.7362 33.1811 34.9974C33.8104 35.2586 34.382 35.6414 34.8632 36.1239C35.3443 36.6065 35.7255 37.1792 35.9849 37.8093C36.2444 38.4394 36.3769 39.1145 36.3749 39.7959C36.3332 41.1464 35.7674 42.4276 34.7974 43.3681C33.8274 44.3086 32.5293 44.8346 31.1782 44.8346C29.8271 44.8346 28.5291 44.3086 27.559 43.3681C26.589 42.4276 26.0232 41.1464 25.9815 39.7959C25.9788 39.1114 26.112 38.4332 26.3734 37.8005C26.6347 37.1678 27.019 36.5933 27.504 36.1101C27.9889 35.627 28.5649 35.245 29.1986 34.986C29.8323 34.7271 30.511 34.5965 31.1956 34.6017ZM31.2204 41.4827C31.6688 41.4802 32.0984 41.3023 32.4174 40.9871C32.7363 40.6719 32.9192 40.2443 32.927 39.7959C32.9322 39.3354 32.7544 38.8917 32.4324 38.5623C32.1105 38.233 31.671 38.045 31.2104 38.0398C30.7499 38.0345 30.3062 38.2124 29.9768 38.5343C29.6475 38.8562 29.4595 39.2958 29.4542 39.7563C29.4535 39.9866 29.499 40.2147 29.588 40.4271C29.677 40.6395 29.8077 40.8319 29.9723 40.9928C30.137 41.1538 30.3323 41.2801 30.5467 41.3643C30.7611 41.4484 30.9902 41.4887 31.2204 41.4827Z" fill="white"/>
<path id="Vector_3" d="M51.9723 34.6017C52.6556 34.5971 53.333 34.7279 53.9655 34.9865C54.5979 35.2451 55.1729 35.6264 55.6572 36.1084C56.1415 36.5904 56.5255 37.1636 56.7871 37.7948C57.0488 38.426 57.1828 39.1027 57.1815 39.786C57.1815 41.1636 56.6342 42.4848 55.6601 43.4589C54.686 44.433 53.3648 44.9803 51.9872 44.9803C50.6096 44.9803 49.2884 44.433 48.3143 43.4589C47.3402 42.4848 46.793 41.1636 46.793 39.786C46.7917 39.1052 46.9247 38.4309 47.1845 37.8017C47.4442 37.1724 47.8256 36.6006 48.3068 36.119C48.7879 35.6374 49.3594 35.2554 49.9884 34.9951C50.6174 34.7347 51.2916 34.601 51.9723 34.6017ZM51.9723 41.4827C52.4217 41.4868 52.8547 41.3145 53.1785 41.0028C53.5022 40.6911 53.6908 40.265 53.7037 39.8158C53.7037 39.3553 53.5208 38.9136 53.1952 38.588C52.8695 38.2623 52.4279 38.0794 51.9674 38.0794C51.5069 38.0794 51.0652 38.2623 50.7396 38.588C50.4139 38.9136 50.231 39.3553 50.231 39.8158C50.244 40.2693 50.436 40.6993 50.7651 41.0116C51.0942 41.324 51.5336 41.4934 51.9872 41.4827H51.9723Z" fill="white"/>
<path id="Vector_4" d="M41.6282 60.5704C38.4278 60.5659 35.2711 59.8277 32.4007 58.4123C31.334 57.8815 30.9123 56.9637 31.3638 56.0409C31.8153 55.1182 32.7777 54.7709 33.8443 55.272C39.0386 57.7228 44.2229 57.6979 49.4122 55.2472C49.6192 55.1294 49.8486 55.0562 50.0855 55.0322C50.3225 55.0081 50.5619 55.0338 50.7884 55.1076C51.0148 55.1814 51.2234 55.3016 51.4008 55.4606C51.5781 55.6196 51.7203 55.8139 51.8183 56.031C52.235 56.9339 51.8679 57.8666 50.8608 58.3776C47.9941 59.8122 44.8339 60.5627 41.6282 60.5704Z" fill="white"/>
</g>
</svg>
