<svg width="251" height="251" viewBox="0 0 251 251" fill="none" xmlns="http://www.w3.org/2000/svg">
<g id="Layer_9" clip-path="url(#clip0_1202_269)">
<path id="Vector" d="M9.86395 89.3845C18.525 94.3662 32.8652 106.465 48.0879 121.41C48.0239 122.762 47.9812 124.114 47.9812 125.481C47.9639 142.069 53.2649 158.226 63.1061 171.581C72.9472 184.935 86.81 194.782 102.66 199.678C118.509 204.574 135.511 204.26 151.169 198.782C166.827 193.304 180.317 182.951 189.658 169.243C198.999 155.534 203.7 139.192 203.07 122.615C202.44 106.039 196.513 90.1006 186.158 77.1405C175.804 64.1804 161.567 54.881 145.538 50.6073C129.51 46.3336 112.533 47.3107 97.1009 53.3952C86.7816 40.2431 75.4146 27.948 63.1113 16.6302C82.0871 5.71149 103.604 -0.0174352 125.497 0.0197107C194.7 0.0197107 251 56.3131 251 125.516C251 194.719 194.7 250.998 125.497 250.998C56.2935 250.998 0.0215127 194.698 0.0215127 125.495C0.0127595 112.482 2.0345 99.5468 6.0138 87.157L9.86395 89.3845Z" fill="white"/>
<path id="tick" fill-rule="evenodd" clip-rule="evenodd" d="M151.877 85.5199L123.14 124.84C123.14 124.84 90.6236 56.5975 35.4048 15.2422C36.9136 39.9017 24.4451 65.1661 15.9121 73.7061C44.379 88.1673 103.782 150.517 121.902 186.677C147.586 152.161 177.796 125.858 198.947 117.645L151.877 85.5199Z" fill="white"/>
<path id="Vector_2" d="M9.86306 89.3867L10.1121 89.5291C6.47981 101.173 4.63691 113.3 4.64649 125.497C4.64649 192.138 58.8618 246.346 125.496 246.346C192.13 246.346 246.345 192.174 246.345 125.497C246.345 58.8203 192.172 4.64779 125.496 4.64779C104.906 4.62225 84.6561 9.89127 66.6902 19.9488L65.4945 18.8243C83.7993 8.48206 104.471 3.05846 125.496 3.08211C192.998 3.08211 247.903 57.9948 247.903 125.49C247.903 192.985 192.984 247.898 125.496 247.898C58.0077 247.898 3.08793 192.978 3.08793 125.49C3.07771 113.018 4.98104 100.619 8.7315 88.7249L9.86306 89.3867Z" fill="#0D5954"/>
<path id="Vector_3" d="M44.586 118.03C44.3654 120.485 44.2444 123.011 44.2444 125.495C44.2409 142.916 49.8363 159.878 60.2055 173.877C70.5746 187.876 85.1684 198.172 101.834 203.247C118.5 208.321 136.356 207.905 152.767 202.06C169.178 196.215 183.277 185.25 192.983 170.783C202.689 156.316 207.488 139.113 206.673 121.711C205.858 104.308 199.472 87.6289 188.457 74.1321C177.441 60.6354 162.38 51.0361 145.494 46.7502C128.608 42.4643 110.792 43.7186 94.6735 50.3283L93.6843 49.1255C110.43 42.1431 129.006 40.8559 146.555 45.4619C164.103 50.0679 179.652 60.3119 190.81 74.6182C201.968 88.9245 208.117 106.501 208.31 124.643C208.504 142.785 202.731 160.488 191.881 175.029C181.03 189.569 165.703 200.143 148.256 205.122C130.81 210.1 112.211 209.209 95.3199 202.586C78.4292 195.962 64.1827 183.972 54.7718 168.46C45.361 152.949 41.3071 134.775 43.2338 116.734C43.6821 117.161 44.1447 117.588 44.586 118.03Z" fill="#0D5954"/>
<path id="Vector_4" d="M96.8733 25.7002L92.7883 26.782L91.9414 23.5795L103.67 20.4766L104.517 23.6791L100.425 24.7608L103.214 35.1868L99.6559 36.1263L96.8733 25.7002Z" fill="#0D5954"/>
<path id="Vector_5" d="M106.771 19.8822L110.415 19.4552L111.013 24.565L116.123 23.9743L115.532 18.8574L119.176 18.4375L120.806 32.4361L117.155 32.856L116.507 27.2622L111.397 27.8529L112.045 33.4538L108.401 33.8808L106.771 19.8822Z" fill="#0D5954"/>
<path id="Vector_6" d="M123.475 18.3555L133.254 18.6046L133.168 21.9138L127.062 21.7573L127.012 23.7001L131.368 23.814L131.289 26.8884L126.934 26.7746L126.87 29.2014L133.232 29.3651L133.147 32.6743L123.141 32.4395L123.475 18.3555Z" fill="#0D5954"/>
<path id="Vector_7" d="M143.666 19.8828L153.224 21.9395L152.512 25.1777L146.541 23.8895L146.136 25.7897L150.406 26.7078L149.758 29.711L145.488 28.793L144.968 31.1913L151.188 32.5292L150.477 35.7674L140.67 33.6323L143.666 19.8828Z" fill="#0D5954"/>
<path id="Vector_8" d="M163.35 25.0018C164.6 25.4264 165.708 26.1904 166.549 27.2085C167.389 28.2265 167.931 29.4584 168.111 30.7663L164.83 31.5919C164.749 30.8313 164.457 30.1085 163.988 29.5041C163.52 28.8996 162.892 28.4373 162.176 28.1687C161.694 27.97 161.176 27.8749 160.655 27.8896C160.134 27.9043 159.622 28.0285 159.152 28.254C158.682 28.4795 158.265 28.8014 157.928 29.1987C157.59 29.5959 157.341 30.0597 157.194 30.5599C156.993 31.0399 156.889 31.5552 156.889 32.0758C156.889 32.5964 156.993 33.1117 157.194 33.5917C157.418 34.0504 157.732 34.4594 158.117 34.7943C158.502 35.1293 158.951 35.3835 159.436 35.5416C160.161 35.8042 160.945 35.8588 161.7 35.699C162.454 35.5393 163.149 35.1717 163.706 34.6378L165.677 37.3849C164.694 38.2678 163.483 38.8593 162.182 39.0931C160.881 39.3269 159.541 39.1938 158.312 38.7086C154.397 37.3493 152.198 33.0152 153.671 29.2505C154.018 28.3287 154.546 27.4856 155.223 26.7708C155.901 26.0559 156.714 25.4837 157.616 25.0879C158.518 24.692 159.49 24.4805 160.474 24.4657C161.459 24.4509 162.437 24.6332 163.35 25.0018Z" fill="#0D5954"/>
<path id="Vector_9" d="M178.794 32.1472C182.41 34.083 183.911 38.7729 181.862 42.2458C179.94 45.8469 175.186 46.9429 171.642 44.879C168.098 42.8152 166.539 38.3174 168.61 34.8017C169.099 33.9526 169.751 33.2092 170.53 32.6149C171.309 32.0206 172.198 31.5873 173.146 31.3402C174.094 31.0931 175.082 31.0372 176.051 31.1758C177.021 31.3143 177.954 31.6446 178.794 32.1472ZM177.165 35.1007C176.723 34.8301 176.229 34.6551 175.716 34.5867C175.202 34.5183 174.68 34.5581 174.182 34.7035C173.685 34.849 173.224 35.0968 172.828 35.4312C172.432 35.7655 172.111 36.179 171.884 36.645C171.611 37.0924 171.429 37.5892 171.349 38.107C171.268 38.6247 171.29 39.1533 171.414 39.6625C171.606 40.2696 171.943 40.8211 172.395 41.2694C172.847 41.7176 173.401 42.0492 174.01 42.2356C174.619 42.4221 175.264 42.4577 175.89 42.3394C176.515 42.2212 177.103 41.9527 177.602 41.5569C178.101 41.1612 178.496 40.6501 178.753 40.0678C179.011 39.4854 179.123 38.8492 179.08 38.2139C179.037 37.5786 178.84 36.9633 178.506 36.421C178.173 35.8786 177.712 35.4255 177.165 35.1007Z" fill="#0D5954"/>
<path id="Vector_10" d="M193.989 42.466C195.036 43.2686 195.839 44.3465 196.309 45.5794C196.78 46.8122 196.898 48.1514 196.65 49.4475L193.284 49.1842C193.448 48.4361 193.401 47.6574 193.15 46.9341C192.899 46.2107 192.453 45.5708 191.861 45.0849C191.465 44.7477 191.003 44.4971 190.505 44.3493C190.006 44.2015 189.482 44.1598 188.967 44.2268C188.451 44.2939 187.955 44.4682 187.511 44.7386C187.067 45.0089 186.684 45.3694 186.388 45.7966C186.05 46.1851 185.794 46.6368 185.632 47.1255C185.471 47.6143 185.409 48.1302 185.449 48.6433C185.513 49.1499 185.678 49.6384 185.935 50.0797C186.192 50.5211 186.535 50.9063 186.943 51.2125C187.544 51.6858 188.265 51.983 189.026 52.0709C189.786 52.1589 190.555 52.0341 191.249 51.7106L192.245 54.9416C191.03 55.467 189.691 55.6427 188.381 55.4491C187.071 55.2555 185.841 54.7002 184.83 53.8456C181.563 51.2978 180.851 46.5154 183.47 43.3912C184.094 42.6315 184.864 42.004 185.734 41.5453C186.603 41.0866 187.556 40.806 188.535 40.7198C189.515 40.6337 190.501 40.7438 191.438 41.0436C192.374 41.3434 193.241 41.827 193.989 42.466Z" fill="#0D5954"/>
<path id="Vector_11" d="M201.425 49.2891L208.1 56.4058L205.681 58.6689L201.517 54.2067L200.094 55.5304L203.069 58.7116L200.82 60.811L197.824 57.6655L196.03 59.3379L200.379 63.9922L197.959 66.2482L191.105 58.918L201.425 49.2891Z" fill="#0D5954"/>
<path id="Vector_12" d="M217.843 69.7661L206.079 77.9859L205.41 77.0181L207.118 66.5138L201.254 70.613L199.119 67.6026L210.883 59.3828L211.552 60.3436L209.965 70.7909L215.737 66.7557L217.843 69.7661Z" fill="#0D5954"/>
<path id="Vector_13" d="M218.399 77.7156L216.485 73.9437L219.431 72.4492L224.911 83.288L221.965 84.7825L220.05 81.0178L210.436 85.8927L208.777 82.619L218.399 77.7156Z" fill="#0D5954"/>
<path id="Vector_14" d="M215.524 98.6107L218.613 94.1698L218.114 92.7465L213.98 94.1698L212.812 90.704L226.121 86.0781L227.936 91.3018C228.967 94.2695 227.936 97.0735 225.146 98.0342C224.391 98.3117 223.576 98.3861 222.783 98.25C221.99 98.1138 221.246 97.772 220.627 97.2585L216.869 102.504L215.524 98.6107ZM221.139 91.6861L221.758 93.4582C221.816 93.6762 221.92 93.8793 222.063 94.0537C222.206 94.228 222.384 94.3696 222.587 94.4689C222.789 94.5681 223.011 94.6226 223.236 94.6287C223.462 94.6348 223.686 94.5924 223.893 94.5043C224.109 94.4442 224.309 94.3382 224.48 94.1935C224.65 94.0487 224.788 93.8688 224.882 93.666C224.977 93.4632 225.027 93.2422 225.028 93.0184C225.029 92.7946 224.982 92.5732 224.89 92.3693L224.278 90.5901L221.139 91.6861Z" fill="#0D5954"/>
<path id="Vector_15" d="M230.639 100.367L231.478 103.926L217.793 107.178L216.953 103.62L230.639 100.367Z" fill="#0D5954"/>
<path id="Vector_16" d="M233.449 114.708C233.632 116.014 233.447 117.345 232.917 118.553C232.387 119.761 231.531 120.797 230.446 121.547L228.233 118.992C228.876 118.576 229.39 117.99 229.719 117.299C230.049 116.608 230.179 115.839 230.097 115.078C230.057 114.56 229.909 114.057 229.661 113.601C229.414 113.144 229.074 112.745 228.663 112.428C228.252 112.112 227.779 111.885 227.274 111.763C226.77 111.64 226.245 111.625 225.735 111.719C225.213 111.762 224.705 111.911 224.241 112.156C223.778 112.4 223.369 112.736 223.038 113.142C222.737 113.546 222.52 114.006 222.398 114.494C222.276 114.983 222.251 115.491 222.326 115.989C222.422 116.749 222.726 117.467 223.206 118.064C223.686 118.661 224.323 119.113 225.045 119.369L223.479 122.365C222.246 121.885 221.171 121.071 220.375 120.013C219.579 118.956 219.094 117.698 218.974 116.38C218.433 112.274 221.287 108.374 225.343 107.982C226.319 107.884 227.303 107.981 228.241 108.267C229.178 108.554 230.049 109.023 230.804 109.649C231.558 110.275 232.18 111.044 232.634 111.913C233.089 112.781 233.366 113.731 233.449 114.708Z" fill="#0D5954"/>
<path id="Vector_17" d="M228.667 130.259L228.333 135.803L225.266 135.618L225.6 130.074L228.667 130.259Z" fill="#0D5954"/>
<path id="Vector_18" d="M217.367 146.818C217.586 145.714 218.125 144.699 218.918 143.899C219.71 143.099 220.72 142.55 221.822 142.32L223.024 145.167C221.601 145.701 220.932 146.32 220.69 147.38C220.448 148.441 220.818 149.352 221.8 149.572C222.782 149.793 223.387 149.117 223.75 147.516L224.184 145.551L225.103 145.758L228.184 149.003L229.052 145.089L232.283 145.8L230.219 155.052L229.28 154.839L225.828 151.202C225.333 151.997 224.602 152.618 223.737 152.979C222.873 153.34 221.917 153.423 221.003 153.216C218.235 152.654 216.698 149.843 217.367 146.818Z" fill="#0D5954"/>
<path id="Vector_19" d="M227.523 164.106C226.206 167.714 222.669 168.561 218.755 167.131C214.841 165.7 212.492 162.683 213.773 159.096C215.054 155.509 218.755 154.698 222.733 156.143C226.711 157.587 228.839 160.498 227.523 164.106ZM224.356 162.946C224.847 161.601 223.95 160.569 221.459 159.665C218.968 158.761 217.453 158.954 216.976 160.256C216.499 161.558 217.524 162.683 220.029 163.594C222.534 164.505 223.865 164.291 224.356 162.946Z" fill="#0D5954"/>
<path id="Vector_20" d="M220.64 179.079L218.042 183.249C215.8 186.936 211.594 188.366 208.036 186.096C204.478 183.961 203.766 179.456 206.079 175.827L208.676 171.656L220.64 179.079ZM208.897 177.535C207.68 179.492 208.043 181.655 210.021 182.886C212 184.118 214 183.449 215.224 181.463L215.871 180.431L209.538 176.517L208.897 177.535Z" fill="#0D5954"/>
<path id="Vector_21" d="M196.834 190.324L200.093 186.459L199.524 185.307L202.072 182.289L208.904 196.437L208.149 197.334L193.055 192.978L195.602 189.961L196.834 190.324ZM203.203 192.409L201.502 189.328L199.922 191.199L203.203 192.409Z" fill="#0D5954"/>
<path id="Vector_22" d="M191.946 201.154L188.273 197.19L190.971 194.699L194.607 198.635L204.101 201.752L201.119 204.506L195.86 202.684L197.283 208.072L194.308 210.812L191.946 201.154Z" fill="#0D5954"/>
<path id="Vector_23" d="M185.198 211.02L180.579 214.101L178.871 211.546L183.49 208.465L185.198 211.02Z" fill="#0D5954"/>
<path id="Vector_24" d="M168.468 226.581C167.388 227.091 166.195 227.317 165.003 227.238C163.811 227.158 162.66 226.775 161.657 226.126L163.137 223.108C163.724 223.51 164.404 223.753 165.112 223.815C165.82 223.878 166.532 223.757 167.18 223.464C169.35 222.518 170.083 220.497 169.129 218.326C168.946 217.816 168.656 217.351 168.278 216.962C167.899 216.574 167.442 216.271 166.937 216.074C166.432 215.877 165.891 215.79 165.349 215.82C164.808 215.851 164.279 215.996 163.799 216.248C163.26 216.454 162.772 216.774 162.369 217.187C161.966 217.6 161.658 218.095 161.465 218.639L161.735 219.244L164.746 217.935L166.005 220.831L159.6 223.614L157.828 219.543C157.962 218.195 158.454 216.908 159.251 215.814C160.108 214.659 161.258 213.754 162.582 213.195C163.469 212.76 164.434 212.51 165.42 212.459C166.406 212.408 167.392 212.557 168.318 212.897C169.245 213.238 170.093 213.762 170.811 214.44C171.53 215.117 172.104 215.932 172.498 216.837C172.893 217.742 173.1 218.718 173.107 219.705C173.114 220.692 172.921 221.671 172.54 222.581C172.159 223.492 171.597 224.316 170.888 225.003C170.18 225.691 169.339 226.228 168.418 226.581H168.468Z" fill="#0D5954"/>
<path id="Vector_25" d="M146.775 218.717L150.967 222.14L152.433 221.756L151.316 217.521L154.874 216.582L158.468 230.211L153.123 231.634C150.085 232.431 147.366 231.164 146.619 228.339C146.401 227.564 146.39 226.745 146.587 225.965C146.785 225.184 147.183 224.469 147.743 223.891L142.818 219.777L146.775 218.717ZM153.251 224.852L151.437 225.328C151.215 225.373 151.005 225.462 150.82 225.591C150.634 225.719 150.476 225.885 150.357 226.076C150.237 226.268 150.158 226.482 150.124 226.705C150.09 226.928 150.102 227.156 150.16 227.375C150.217 227.593 150.318 227.798 150.457 227.976C150.596 228.154 150.77 228.301 150.969 228.409C151.167 228.518 151.385 228.584 151.61 228.605C151.835 228.626 152.062 228.601 152.277 228.531L154.091 228.047L153.251 224.852Z" fill="#0D5954"/>
<path id="Vector_26" d="M143.537 233.793L133.815 234.989L133.417 231.701L139.473 230.953L139.238 229.025L134.911 229.559L134.541 226.513L138.861 225.979L138.562 223.538L132.249 224.313L131.844 221.033L141.807 219.809L143.537 233.793Z" fill="#0D5954"/>
<path id="Vector_27" d="M129.966 235.2H120.188V231.891H126.294V229.948H121.939V226.874H126.294V224.419H119.932V221.109L129.973 221.145L129.966 235.2Z" fill="#0D5954"/>
<path id="Vector_28" d="M103.783 233.151L105.847 218.953L107.007 219.124L113.505 227.557L114.537 220.441L118.166 220.967L116.109 235.201L114.942 235.03L108.43 226.703L107.413 233.678L103.783 233.151Z" fill="#0D5954"/>
<path id="Vector_29" d="M86.4109 228.156C85.282 227.763 84.2719 227.089 83.4761 226.198C82.6803 225.306 82.1252 224.226 81.8633 223.06L85.0373 221.943C85.1741 222.64 85.4892 223.291 85.9519 223.831C86.4145 224.371 87.0091 224.782 87.6776 225.024C89.891 225.871 91.8267 224.939 92.6594 222.726C92.8859 222.233 93.004 221.697 93.0058 221.154C93.0075 220.612 92.8929 220.075 92.6696 219.581C92.4464 219.086 92.1196 218.646 91.7115 218.288C91.3034 217.931 90.8233 217.665 90.3037 217.509C89.7759 217.276 89.2036 217.162 88.627 217.175C88.0503 217.187 87.4834 217.325 86.966 217.58L86.7311 218.199L89.7984 219.374L88.674 222.327L82.1693 219.843L83.7492 215.694C84.7999 214.832 86.0592 214.263 87.4001 214.043C88.8206 213.82 90.2749 213.98 91.6132 214.506C92.5479 214.823 93.4095 215.324 94.1474 215.98C94.8853 216.635 95.4845 217.432 95.9097 218.323C96.3348 219.213 96.5773 220.18 96.6229 221.166C96.6685 222.152 96.5162 223.137 96.175 224.063C94.7944 227.878 90.3464 229.721 86.4109 228.156Z" fill="#0D5954"/>
<path id="Vector_30" d="M76.7544 223.792L73.5732 221.963L77.7578 214.689C77.9323 214.397 78.0469 214.074 78.0949 213.737C78.143 213.401 78.1236 213.058 78.0378 212.729C77.952 212.4 77.8016 212.091 77.5953 211.821C77.389 211.55 77.131 211.324 76.8363 211.154C76.5415 210.985 76.216 210.876 75.8786 210.833C75.5413 210.791 75.1988 210.816 74.8712 210.907C74.5437 210.998 74.2375 211.154 73.9707 211.364C73.7039 211.575 73.4816 211.837 73.317 212.134L69.1324 219.408L65.9512 217.572L70.0006 210.54C70.3996 209.813 70.9397 209.173 71.5893 208.657C72.2389 208.141 72.9849 207.76 73.7836 207.536C74.5823 207.312 75.4177 207.25 76.2408 207.353C77.0639 207.456 77.8581 207.722 78.577 208.136C79.2958 208.55 79.9249 209.103 80.4273 209.763C80.9296 210.423 81.2952 211.177 81.5026 211.98C81.71 212.784 81.755 213.62 81.635 214.441C81.515 215.262 81.2324 216.05 80.8038 216.76L76.7544 223.792Z" fill="#0D5954"/>
<path id="Vector_31" d="M64.4643 200.251L68.4354 203.382L69.567 202.777L72.6699 205.219L58.7638 212.527L57.8457 211.816L61.6816 196.586L64.7845 199.027L64.4643 200.251ZM62.5997 206.656L65.5958 204.856L63.6672 203.34L62.5997 206.656Z" fill="#0D5954"/>
<path id="Vector_32" d="M55.2681 189.776L54.286 195.092L55.3322 196.195L58.5062 193.177L61.0327 195.839L50.8202 205.546L46.9914 201.54C44.8563 199.262 44.6357 196.266 46.7565 194.252C47.329 193.687 48.0403 193.283 48.8187 193.081C49.5971 192.878 50.4151 192.885 51.1902 193.099L52.4285 186.801L55.2681 189.776ZM53.0121 198.401L51.7169 197.035C51.5744 196.861 51.3963 196.72 51.1947 196.621C50.9931 196.522 50.7727 196.467 50.5481 196.46C50.3236 196.453 50.1002 196.495 49.893 196.582C49.6858 196.668 49.4996 196.799 49.347 196.963C49.1783 197.109 49.043 197.289 48.9503 197.492C48.8575 197.695 48.8095 197.915 48.8095 198.138C48.8095 198.361 48.8575 198.581 48.9503 198.783C49.043 198.986 49.1783 199.166 49.347 199.312L50.6422 200.678L53.0121 198.401Z" fill="#0D5954"/>
<path id="Vector_33" d="M46.2297 180.019L49.1546 184.147L50.4072 183.883L52.6917 187.107L37.2839 190.175L36.5723 189.221L44.5786 175.699L46.8631 178.923L46.2297 180.019ZM42.6144 185.663L45.9948 184.787L44.5715 182.78L42.6144 185.663Z" fill="#0D5954"/>
<path id="Vector_34" d="M25.9551 170.07L38.7652 163.594L39.2989 164.64L36.1249 174.81L42.5299 171.579L44.1881 174.852L31.378 181.329L30.8514 180.282L33.9116 170.17L27.6275 173.351L25.9551 170.07Z" fill="#0D5954"/>
<path id="Vector_35" d="M26.5321 162.112L27.8843 166.111L24.7529 167.172L20.8672 155.685L23.9986 154.625L25.3578 158.632L35.6059 155.166L36.7802 158.646L26.5321 162.112Z" fill="#0D5954"/>
<path id="Vector_36" d="M20.1754 152.791L18.2539 143.204L21.4991 142.55L22.7019 148.542L24.602 148.158L23.748 143.887L26.7584 143.283L27.6195 147.553L30.025 147.069L28.7724 140.827L32.0177 140.18L33.9961 150.015L20.1754 152.791Z" fill="#0D5954"/>
<path id="Vector_37" d="M17.7488 139.345L17.0371 129.588L20.3393 129.353L20.7734 135.445L22.7163 135.303L22.4031 130.961L25.4704 130.741L25.7765 135.089L28.2317 134.911L27.7763 128.563L31.0784 128.328L31.7901 138.341L17.7488 139.345Z" fill="#0D5954"/>
</g>
<defs>
<clipPath id="clip0_1202_269">
<rect width="251" height="251" fill="white"/>
</clipPath>
</defs>
</svg>
